<?xml version="1.0" encoding="UTF-8"?>
<svg width="190px" height="80px" viewBox="0 0 190 80" version="1.1" xmlns="http://www.w3.org/2000/svg" xmlns:xlink="http://www.w3.org/1999/xlink">
    <!-- Generator: Sketch 60.1 (88133) - https://sketch.com -->
    <title>brands / Wenger-m</title>
    <desc>Created with Sketch.</desc>
    <g id="brands-/-Wenger-m" stroke="none" stroke-width="1" fill="none" fill-rule="evenodd">
        <g id="Wenger_logo" transform="translate(23.000000, 29.000000)" fill-rule="nonzero">
            <path d="M21.9909836,10.9981967 C21.9909836,12.7514344 21.8512295,14.5384836 21.5221311,16.0960656 C21.1885246,17.6486885 20.6790984,18.9844672 19.8315574,19.8338115 C18.9795082,20.6781967 17.645082,21.1907787 16.0897541,21.5243852 C14.5344262,21.8561885 12.7491803,21.9923361 10.9954918,21.9923361 C9.23729508,21.9923361 7.45655738,21.8561885 5.89672131,21.5243852 C4.34139344,21.1907787 3.00696721,20.6809016 2.15491803,19.8338115 C1.31188525,18.9844672 0.79795082,17.6486885 0.464344262,16.0960656 C0.135245902,14.5384836 -8.17124146e-14,12.7514344 -8.17124146e-14,10.9981967 L-8.17124146e-14,10.9869262 C-8.17124146e-14,9.2354918 0.135245902,7.45385246 0.464344262,5.90077869 C0.79795082,4.34590164 1.31188525,3.01012295 2.15491803,2.15807377 C3.00696721,1.31413934 4.34139344,0.803811475 5.89672131,0.4675 C7.45655738,0.138401639 9.23729508,0.00180327869 10.9954918,0.00180327869 C12.7491803,0.00180327869 14.5344262,0.138401639 16.0897541,0.4675 C17.645082,0.803811475 18.9795082,1.31413934 19.8315574,2.15807377 C20.6790984,3.01012295 21.1885246,4.34590164 21.5221311,5.90077869 C21.8512295,7.45610656 21.9909836,9.24270492 21.9909836,10.9981967 L21.9909836,10.9981967 Z M19.5204918,2.47094262 C18.0372951,0.985040984 14.4577869,0.438647541 10.9954918,0.438647541 C7.53319672,0.438647541 3.94918033,0.985040984 2.46598361,2.47094262 C0.982786885,3.95459016 0.437295082,7.535 0.437295082,10.9981967 C0.437295082,14.4618443 0.982786885,18.0395492 2.46598361,19.5236475 C3.94918033,21.01 7.53319672,21.5532377 10.9954918,21.5532377 C14.4577869,21.5532377 18.0372951,21.01 19.5204918,19.5236475 C21.0036885,18.0395492 21.5536885,14.4618443 21.5536885,10.9981967 C21.5536885,7.535 21.0036885,3.95459016 19.5204918,2.47094262 M18.3754098,18.3763115 C17.3430328,19.3875 14.4938525,19.9956557 10.9954918,20.0028689 C7.49713115,19.9956557 4.64344262,19.3875 3.61106557,18.3785656 C2.60122951,17.3461885 1.99262295,14.4979098 1.98811475,10.9959426 C1.99262295,7.49713115 2.60122951,4.64885246 3.61106557,3.61557377 C4.64344262,2.60213115 7.49713115,1.99893443 10.9954918,1.98901639 C14.4938525,1.99893443 17.3430328,2.60213115 18.3754098,3.61557377 C19.3897541,4.64885246 19.9938525,7.49713115 20.0028689,10.9959426 C19.9938525,14.4979098 19.3852459,17.3461885 18.3754098,18.3763115 M17.3159836,9.17868852 L12.8122951,9.17868852 L12.8122951,4.6727459 L9.17868852,4.6727459 L9.17868852,9.17868852 L4.675,9.17868852 L4.675,12.8136475 L9.17868852,12.8136475 L9.17868852,17.3195902 L12.8122951,17.3195902 L12.8122951,12.8136475 L17.3159836,12.8136475 L17.3159836,9.17868852 Z" id="Cross" fill="#636363" transform="translate(10.995492, 10.997070) scale(-1, 1) rotate(-180.000000) translate(-10.995492, -10.997070) "></path>
            <path d="M28.9155738,3.01192623 C28.6721311,3.36491803 28.622541,3.73954918 28.5459016,4.03483607 L25.0836066,18.6639344 L25.0836066,18.7139754 C25.0881148,18.9290164 25.0836066,19.1530738 25.2954918,19.3771311 C25.5344262,19.58 25.7553279,19.5610656 25.9356557,19.5660246 L29.7,19.5660246 C29.9479508,19.5660246 30.1778689,19.5231967 30.3672131,19.3847951 C30.5655738,19.2463934 30.6467213,19.0318033 30.6647541,18.8911475 L31.7241803,13.5836475 C32.0713115,11.8637705 32.3508197,9.92704918 32.5040984,8.28561475 C32.9819672,9.71696721 33.6446721,11.3890574 34.420082,13.2256967 L36.7463115,18.8740164 C36.85,19.2558607 37.3278689,19.6043443 37.9139344,19.5660246 L42.2688525,19.5660246 C42.7782787,19.5660246 43.2651639,19.2991393 43.3643443,18.7928689 L44.9151639,11.2745492 C45.054918,10.6113934 45.2442623,9.34729508 45.4020492,8.20942623 C45.6995902,9.21881148 46.0827869,10.3012295 46.4885246,11.315123 L49.5586066,18.9551639 C49.6442623,19.3180738 50.0860656,19.6020902 50.5143443,19.5660246 L53.8504098,19.5660246 C54.0487705,19.5610656 54.2471311,19.5610656 54.4680328,19.4059836 C54.6889344,19.2369262 54.7295082,18.9790574 54.7295082,18.7861066 L54.7295082,18.7027049 L48.1295082,3.99696721 C47.9852459,3.66561475 47.8184426,3.28647541 47.507377,2.96459016 C47.2008197,2.6422541 46.7229508,2.41053279 46.132377,2.4154918 L43.2696721,2.4154918 C42.6295082,2.41053279 42.142623,2.54938525 41.8315574,2.90463115 C41.5295082,3.25762295 41.4663934,3.65840164 41.3627049,4.09704918 L40.4295082,8.62463115 C40.1004098,10.2272951 39.7442623,12.2785246 39.554918,13.965041 C38.9913934,12.412418 38.2295082,10.390041 37.675,9.07995902 L35.5245902,3.96360656 C35.3893443,3.68680328 35.2811475,3.31983607 34.992623,2.98577869 C34.695082,2.6445082 34.1991803,2.40557377 33.527459,2.4154918 L30.2905738,2.4154918 L30.2454918,2.4154918 C29.6278689,2.4154918 29.1545082,2.65172131 28.9155738,3.01192623 M54.8827869,2.70942623 C54.6979508,2.93844262 54.7114754,3.1647541 54.7114754,3.2954918 L54.7114754,3.30991803 L55.7032787,18.7 C55.7032787,18.9267623 55.7889344,19.1981557 56.0098361,19.3681148 C56.2307377,19.529959 56.4831967,19.5682787 56.7446721,19.5709836 L67.6680328,19.5709836 C67.992623,19.5709836 68.2901639,19.5060656 68.497541,19.2680328 C68.682377,19.0241393 68.6643443,18.795123 68.6733607,18.6377869 L68.6733607,18.6238115 L68.5471311,16.9922951 C68.5290984,16.7804098 68.4569672,16.5293033 68.2405738,16.3503279 C68.0286885,16.1713525 67.7581967,16.1235656 67.4831967,16.1235656 L60.7118852,16.1235656 L60.5135246,13.2067623 L65.5491803,13.2067623 C65.8602459,13.2067623 66.1397541,13.1540164 66.3471311,12.9443852 C66.55,12.7248361 66.5545082,12.4813934 66.5545082,12.3267623 L66.5545082,12.3096311 L66.4327869,10.6253689 C66.4372951,10.3990574 66.3471311,10.129918 66.1307377,9.96491803 C65.9098361,9.80081967 65.657377,9.76204918 65.3913934,9.75979508 L60.2790984,9.75979508 L60.0446721,5.86516393 L66.7618852,5.86516393 C67.0594262,5.8575 67.3209016,5.83631148 67.5508197,5.62893443 C67.7717213,5.40442623 67.7627049,5.15602459 67.7672131,4.96081967 L67.6770492,3.2954918 C67.6860656,3.0547541 67.5688525,2.78561475 67.3479508,2.62557377 C67.1360656,2.4682377 66.8790984,2.4177459 66.6086066,2.4177459 L55.6852459,2.4177459 L55.6717213,2.4177459 C55.3651639,2.4177459 55.0766393,2.48221311 54.8827869,2.70942623 M69.917623,2.70942623 C69.7372951,2.93844262 69.746237,3.1647541 69.746237,3.2954918 L69.746237,3.30991803 L70.7381148,18.6522131 C70.7381148,18.8956557 70.8372951,19.1580328 71.0446721,19.3270902 C71.2565574,19.5060656 71.5270492,19.5709836 71.8065574,19.5709836 L76.0127049,19.5709836 C76.4905738,19.5520492 76.8692623,19.2991393 77.0901639,18.9312705 L82.3827869,9.62184426 C82.5991803,9.21881148 82.8786885,8.73192623 83.1401639,8.21393443 L83.8118852,18.6138934 C83.807377,18.860041 83.8795082,19.1463115 84.1094262,19.3370082 C84.3393443,19.5254508 84.6188525,19.5682787 84.9118852,19.5709836 L87.3372951,19.5709836 C87.6663934,19.5682787 87.9594262,19.5254508 88.1848361,19.2919262 C88.3877049,19.0412705 88.3696721,18.805041 88.3696721,18.6138934 L87.3778689,3.2954918 C87.3868852,3.07143443 87.2922131,2.79237705 87.0622951,2.62557377 C86.8368852,2.46327869 86.5754098,2.4177459 86.2778689,2.4177459 L82.0446721,2.4177459 C81.5262295,2.43442623 81.147541,2.72836066 80.9356557,3.08360656 L75.7106557,12.5769672 C75.4086066,13.09 75.1606557,13.5381148 74.9487705,13.9461066 L74.3086066,3.2954918 C74.3131148,3.0547541 74.204918,2.79463115 74.0065574,2.63459016 C73.8036885,2.4727459 73.5557377,2.4177459 73.3032787,2.4177459 L70.7155738,2.4177459 L70.7065574,2.4177459 C70.4,2.4177459 70.1114754,2.48221311 69.917623,2.70942623 M92.1565574,4.13762295 C90.3577869,5.47610656 89.4155738,7.52463115 89.4245261,10.1371311 C89.4155738,13.4168443 90.817623,15.8855328 93.0040984,17.4764754 C95.1905738,19.0741803 98.1254098,19.8189344 101.227049,19.8211885 C102.881557,19.8139754 104.914754,19.6521311 105.978689,19.2008607 C106.312295,19.0507377 106.681967,18.8429098 106.713525,18.337541 L106.587295,16.3503279 C106.587295,16.1862295 106.560246,16.0072541 106.461066,15.8210656 C106.37541,15.6443443 106.127459,15.4392213 105.829918,15.4441803 C104.738934,15.4843033 103.837295,16.2502459 101.290164,16.2502459 C97.2553279,16.2286066 94.9471311,13.7170902 94.9155738,10.34 C94.9245902,8.76754098 95.3979508,7.68737705 96.2364754,6.9642623 C97.075,6.24159836 98.3282787,5.86020492 99.9827869,5.86020492 C100.145082,5.86020492 100.298361,5.87913934 100.460656,5.89807377 L100.74918,10.3463115 C100.744672,10.5753279 100.834836,10.8593443 101.069262,11.0220902 C101.303689,11.1834836 101.560656,11.215041 101.84918,11.2172951 L105.270902,11.2172951 C105.595492,11.2172951 105.893033,11.160041 106.091393,10.9170492 C106.271721,10.6736066 106.240164,10.4590164 106.244672,10.3134016 L105.843443,4.00868852 C105.829918,3.5267623 105.478279,3.19360656 105.090574,2.98081967 C104.684836,2.75946721 104.170902,2.60663934 103.589344,2.48717213 C102.430738,2.25319672 100.997131,2.16754098 99.7618852,2.16528689 C96.5204918,2.16754098 93.9463115,2.79959016 92.1565574,4.13762295 M108.169672,2.70942623 C107.984836,2.93844262 107.998361,3.1647541 107.993852,3.2954918 L107.993852,3.30991803 L108.985656,18.7 C108.985656,18.9267623 109.071311,19.1981557 109.296721,19.3681148 C109.513115,19.529959 109.761066,19.5682787 110.027049,19.5709836 L120.95041,19.5709836 C121.275,19.5709836 121.577049,19.5060656 121.779918,19.2680328 C121.969262,19.0241393 121.95123,18.795123 121.955738,18.6377869 L121.955738,18.6188525 L121.829508,16.9922951 C121.811475,16.7804098 121.743852,16.5293033 121.522951,16.3503279 C121.311066,16.1713525 121.040574,16.1235656 120.765574,16.1235656 L113.994262,16.1235656 L113.80041,13.2067623 L118.836066,13.2067623 C119.142623,13.2067623 119.422131,13.1540164 119.634016,12.9443852 C119.832377,12.7248361 119.836885,12.4863525 119.841393,12.3267623 L119.841393,12.3046721 L119.715164,10.6253689 C119.715164,10.3990574 119.629508,10.129918 119.413115,9.96491803 C119.192213,9.80081967 118.939754,9.76204918 118.678279,9.75979508 L113.561475,9.75979508 L113.327049,5.86516393 L120.04877,5.86020492 C120.341803,5.8575 120.603279,5.83631148 120.833197,5.62893443 C121.054098,5.40442623 121.04959,5.15602459 121.054098,4.96081967 L120.963934,3.2954918 C120.968443,3.0547541 120.855738,2.78561475 120.634836,2.62557377 C120.418443,2.4682377 120.165984,2.4177459 119.890984,2.4177459 L108.967623,2.4177459 L108.954098,2.4177459 C108.647541,2.4177459 108.363525,2.48221311 108.169672,2.70942623 M139.181557,3.65569672 L133.979098,10.6880328 C134.619262,10.8142623 135.430738,11.0834016 136.197131,11.567582 C137.301639,12.2573361 138.302459,13.4596721 138.297951,15.2701639 C138.306967,16.6843852 137.72541,17.8317213 136.602869,18.5426639 C135.489344,19.2558607 133.911475,19.5682787 131.87377,19.5682787 L125.061885,19.5682787 C124.809426,19.5682787 124.561475,19.5281557 124.345082,19.3681148 C124.12418,19.2103279 124.020492,18.9411885 124.025,18.7 L123.028614,3.30991803 L123.028614,3.2954918 C123.028614,3.15979508 123.019672,2.93844262 123.2,2.70942623 C123.398361,2.48221311 123.691393,2.4154918 124.006967,2.41768501 L127.266393,2.41768501 C127.518852,2.4154918 127.77582,2.47545082 127.969672,2.65938525 C128.154508,2.83971311 128.217623,3.08360656 128.213115,3.2954918 L128.627869,9.68586066 L128.727049,9.68586066 L133.429098,2.84467213 C133.631967,2.55163934 133.979098,2.41768501 134.29918,2.41768501 L134.335246,2.41768501 L138.536885,2.41768501 C138.69918,2.41768501 138.875,2.42270492 139.064344,2.50836066 C139.267213,2.5804918 139.465574,2.85233607 139.452049,3.09262295 C139.425,3.39782787 139.289754,3.53172131 139.181557,3.65569672 M132.162295,13.3735656 C131.738525,13.0728689 131.044262,12.879918 130.106557,12.879918 L128.830738,12.879918 L129.029098,16.2502459 L130.661066,16.2502459 C131.634836,16.2502459 132.153279,16.045123 132.419262,15.789959 C132.685246,15.5370492 132.797951,15.1579098 132.797951,14.6142213 C132.793443,14.0561066 132.586066,13.6765164 132.162295,13.3735656" id="Wenger" fill="#3F3F3F" transform="translate(82.268155, 10.993238) scale(-1, 1) rotate(-180.000000) translate(-82.268155, -10.993238) "></path>
            <path d="M141.963115,4.08803279 L141.809836,4.08803279 L141.755738,3.3892623 C141.75123,3.29819672 141.72418,3.22922131 141.683607,3.18639344 C141.638525,3.14086066 141.584426,3.12192623 141.521311,3.12192623 C141.44918,3.12192623 141.395082,3.14311475 141.359016,3.18909836 C141.327459,3.23418033 141.309426,3.30315574 141.318443,3.3892623 L141.435656,5.06360656 C141.444672,5.15872951 141.467213,5.22815574 141.512295,5.26872951 C141.557377,5.31381148 141.629508,5.3327459 141.72418,5.3327459 L142.440984,5.3327459 C142.540164,5.3327459 142.62582,5.32868852 142.693443,5.32147541 C142.765574,5.31381148 142.828689,5.29758197 142.878279,5.26872951 C142.945902,5.24258197 143.009016,5.20155738 143.054098,5.14971311 C143.09918,5.09245902 143.139754,5.0325 143.162295,4.96127049 C143.184836,4.88733607 143.189344,4.81565574 143.184836,4.7367623 C143.171311,4.57446721 143.117213,4.44553279 143.022541,4.34815574 C142.923361,4.25032787 142.779098,4.18135246 142.585246,4.14303279 C142.666393,4.0975 142.738525,4.0379918 142.801639,3.95639344 C142.864754,3.87614754 142.927869,3.78733607 142.972951,3.69942623 C143.022541,3.60610656 143.063115,3.5222541 143.085656,3.45102459 C143.112705,3.37483607 143.12623,3.32479508 143.12623,3.29819672 C143.121721,3.2679918 143.108197,3.23913934 143.090164,3.2129918 C143.067623,3.18413934 143.045082,3.1602459 143.009016,3.14581967 C142.977459,3.12913934 142.941393,3.12192623 142.896311,3.12192623 C142.85123,3.12192623 142.806148,3.13139344 142.77459,3.15528689 C142.743033,3.17692623 142.720492,3.20803279 142.693443,3.24590164 C142.67541,3.2792623 142.648361,3.3320082 142.607787,3.40098361 L142.45,3.69446721 C142.395902,3.80221311 142.341803,3.88516393 142.296721,3.94016393 C142.251639,3.99741803 142.206557,4.03528689 142.156967,4.05692623 C142.107377,4.07856557 142.039754,4.08803279 141.963115,4.08803279 M142.278689,5.00364754 L141.872951,5.00364754 L141.832377,4.40540984 L142.229098,4.40540984 C142.332787,4.40540984 142.418443,4.41262295 142.495082,4.4342623 C142.571721,4.4504918 142.62582,4.48159836 142.666393,4.52442623 C142.706967,4.5695082 142.734016,4.62946721 142.738525,4.70836066 C142.738525,4.77012295 142.729508,4.82016393 142.702459,4.86840164 C142.67541,4.91348361 142.634836,4.94684426 142.580738,4.9707377 C142.535656,4.99237705 142.431967,5.00364754 142.278689,5.00364754 M143.563525,2.8072541 C143.139754,2.40872951 142.648361,2.20811475 142.084836,2.20811475 C141.521311,2.20811475 141.056967,2.40872951 140.691803,2.8072541 C140.331148,3.20081967 140.168852,3.68229508 140.204918,4.24536885 C140.245492,4.80122951 140.47541,5.27819672 140.89918,5.67672131 C141.318443,6.06983607 141.809836,6.26594262 142.368852,6.26594262 C142.927869,6.26594262 143.392213,6.06983607 143.761885,5.67672131 C144.131557,5.28045082 144.293852,4.80348361 144.253279,4.24536885 C144.217213,3.68229508 143.987295,3.20532787 143.563525,2.8072541 M141.079508,5.47655738 C140.718852,5.13528689 140.525,4.72459016 140.488934,4.24311475 C140.448361,3.75622951 140.592623,3.34147541 140.903689,2.99795082 C141.219262,2.65713115 141.620492,2.48491803 142.107377,2.48491803 C142.585246,2.48491803 143.013525,2.65713115 143.378689,2.99795082 C143.739344,3.34147541 143.937705,3.75622951 143.969262,4.24311475 C144.005328,4.72459016 143.861066,5.13528689 143.55,5.47655738 C143.229918,5.81963115 142.828689,5.98959016 142.346311,5.98959016 C141.868443,5.98959016 141.444672,5.81963115 141.079508,5.47655738" id="registered_trademark" fill="#3F3F3F" transform="translate(142.229680, 4.237029) scale(-1, 1) rotate(-180.000000) translate(-142.229680, -4.237029) "></path>
        </g>
    </g>
</svg>