<?xml version="1.0" encoding="UTF-8"?>
<svg width="190px" height="80px" viewBox="0 0 190 80" version="1.1" xmlns="http://www.w3.org/2000/svg" xmlns:xlink="http://www.w3.org/1999/xlink">
    <!-- Generator: Sketch 53 (72520) - https://sketchapp.com -->
    <title>brands / Calvin-Klein-c</title>
    <desc>Created with Sketch.</desc>
    <g id="brands-/-Calvin-Klein-c" stroke="none" stroke-width="1" fill="none" fill-rule="evenodd">
        <g id="Calvin_klein_logo" transform="translate(26.000000, 31.000000)" fill="#000000" fill-rule="nonzero">
            <g id="g22" transform="translate(69.057692, 9.500000) scale(-1, 1) rotate(-180.000000) translate(-69.057692, -9.500000) ">
                <g id="g28" transform="translate(0.037253, 0.040923)">
                    <path d="M2.2735042,9.4188031 C2.2735042,5.24854683 5.25211948,2.16145292 9.15150397,2.16145292 C12.7803415,2.16145292 14.6215551,4.43625626 15.1632986,5.51941862 L17.2211447,5.51941862 C16.6797259,3.78635885 14.2425294,0.211760677 9.15150397,0.211760677 C4.00656397,0.211760677 0.107179484,4.11114516 0.107179484,9.4188031 C0.107179484,14.6722217 4.06080328,18.6258455 9.15150397,18.6258455 C14.2425294,18.6258455 16.7336405,15.1054867 17.275384,13.3181876 L15.1632986,13.3181876 C14.5134012,14.4555893 12.7261021,16.7300678 9.15150397,16.7300678 C5.25211948,16.7300678 2.2735042,13.6432987 2.2735042,9.4188031" id="path30"/>
                </g>
                <g id="g32" transform="translate(16.397584, 0.554410)">
                    <path d="M11.0427347,7.22649548 L8.00988007,15.1876576 L4.97702547,7.22649548 L11.0427347,7.22649548 Z M11.7465466,5.43919639 L4.27288875,5.43919639 L2.21471787,0.0772991345 L0.15687179,0.0772991345 L7.03519634,17.8414866 L9.03880311,17.8414866 L15.9168029,0.0230598201 L13.8047175,0.0230598201 L11.7465466,5.43919639 Z" id="path34"/>
                </g>
                <g id="g36" transform="translate(33.185626, 0.577568)">
                    <polygon id="path38" points="9.09401679 0 0.212085463 0 0.212085463 17.818102 2.32417086 17.818102 2.32417086 1.95001703 9.1482561 1.95001703"/>
                </g>
                <g id="g40" transform="translate(39.305315, 0.577568)">
                    <polygon id="path42" points="8.76923047 0 6.81953823 0 0.158170935 17.818102 2.37873496 17.818102 7.79454675 2.87046144 13.2100337 17.818102 15.3224439 17.818102"/>
                </g>
                <polygon id="path44" points="58.0396391 0.577470066 55.981793 0.577470066 55.981793 18.395572 58.0396391 18.395572"/>
                <g id="g46" transform="translate(60.694767, 0.314328)">
                    <polygon id="path48" points="2.2735042 14.6153841 2.2735042 0.263401701 0.323811955 0.263401701 0.323811955 18.0815037 2.2735042 18.0815037 12.1843586 3.67528193 12.1843586 18.0815037 14.1340508 18.0815037 14.1340508 0.263401701 12.3467517 0.263401701"/>
                </g>
                <g id="g50" transform="translate(82.467662, 0.311145)">
                    <polygon id="path52" points="4.54700839 8.44444416 2.27220505 5.89876903 2.27220505 0.266324777 0.214358967 0.266324777 0.214358967 18.0847515 2.27220505 18.0847515 2.27220505 8.60683732 10.6127176 18.0847515 13.1038286 18.0847515 5.95495706 10.0693501 13.1038286 0.320564092 10.7211962 0.320564092"/>
                </g>
                <g id="g54" transform="translate(96.550819, 0.577568)">
                    <polygon id="path56" points="9.09401679 0 0.211760677 0 0.211760677 17.818102 2.32417086 17.818102 2.32417086 1.95001703 9.14858089 1.95001703 9.14858089 0"/>
                </g>
                <g id="g58" transform="translate(106.944631, 0.532520)">
                    <polygon id="path60" points="0 17.8632473 9.47791421 17.8632473 9.47791421 15.9677943 2.05817087 15.9677943 2.05817087 10.0644783 9.26160653 10.0644783 9.26160653 8.16902537 2.05817087 8.16902537 2.05817087 1.99516233 9.47791421 1.99516233 9.47791421 0.099384612 0 0.099384612"/>
                </g>
                <polygon id="path62" points="121.025774 0.577470066 118.967928 0.577470066 118.967928 18.395572 121.025774 18.395572"/>
                <g id="g64" transform="translate(123.626695, 0.314328)">
                    <polygon id="path66" points="2.2735042 14.6153841 2.2735042 0.263401701 0.323811955 0.263401701 0.323811955 18.0815037 2.2735042 18.0815037 12.1846834 3.67528193 12.1846834 18.0815037 14.1343756 18.0815037 14.1343756 0.263401701 12.3470765 0.263401701"/>
                </g>
            </g>
        </g>
    </g>
</svg>