<?xml version="1.0" encoding="UTF-8"?>
<svg width="190px" height="80px" viewBox="0 0 190 80" version="1.1" xmlns="http://www.w3.org/2000/svg" xmlns:xlink="http://www.w3.org/1999/xlink">
    <!-- Generator: Sketch 53 (72520) - https://sketchapp.com -->
    <title>brands / Tissot-с</title>
    <desc>Created with Sketch.</desc>
    <g id="brands-/-Tissot-с" stroke="none" stroke-width="1" fill="none" fill-rule="evenodd">
        <g id="tissot" transform="translate(46.000000, 20.000000)">
            <polygon id="Path" fill="#000000" points="48.2693297 14.1300071 33.5697497 14.1300071 33.5697497 0.0263408781 48.2693297 0.0263408781 48.2693297 14.1300071"/>
            <polygon id="Path" fill="#CC2132" points="65.0062983 14.1300071 50.3067183 14.1300071 50.3067183 0.0263408781 65.0062983 0.0263408781 65.0062983 14.1300071"/>
            <path d="M0.012596673,17.7792113 L16.8640567,17.7792113 L16.8640567,22.1790325 L11.2132075,22.1790325 L11.2132075,35.6811999 L5.66288737,35.6811999 L5.66288737,22.1790325 L0.012596673,22.1790325 L0.012596673,17.7792113 Z M18.9701402,17.7792113 L24.5204603,17.7792113 L24.5204603,35.6811999 L18.9701402,35.6811999 L18.9701402,17.7792113 Z M26.9644331,29.5975173 L32.2645476,29.5975173 C32.3784805,30.4581576 32.6091388,30.9479575 32.959315,31.3975457 C33.5278626,32.1196793 34.3404723,32.4804669 35.3982612,32.4804669 C36.1879727,32.4804669 36.7950564,32.2972806 37.2245389,31.9286741 C37.6501118,31.5634186 37.8651323,31.1344947 37.8651323,30.6424609 C37.8651323,30.1766763 37.6596062,29.7600393 37.2507881,29.3947837 C36.840853,29.0345547 35.8908536,28.6910804 34.4019067,28.3638026 C31.962402,27.8170363 30.2232495,27.0898762 29.1844494,26.1812053 C28.1372719,25.2825874 27.6145209,24.1281789 27.6145209,22.7202138 C27.6145209,21.802607 27.8814813,20.9380573 28.4176362,20.1187456 C28.9537911,19.3005509 29.7580235,18.656048 30.8325672,18.185237 C31.908228,17.7161014 33.3837709,17.4792997 35.2552866,17.4792997 C37.5540507,17.4792997 39.3049316,17.9065481 40.5112801,18.7582525 C41.7181871,19.6093984 42.4358527,21.1190095 42.6653941,22.9787968 L37.4144271,22.9787968 C37.2748034,22.1790325 36.9849446,21.7473161 36.5420584,21.3820605 C36.0974966,21.0123371 35.4865034,20.8302678 34.7051693,20.8302678 C34.062342,20.8302678 33.5775686,20.9687745 33.2514077,21.2413199 C32.9269223,21.5149823 32.7649588,21.8478451 32.7649588,22.2382329 C32.7649588,22.5163632 32.8967636,22.7682443 33.1665165,22.9972272 C33.4262165,23.2351459 34.0467041,23.4563098 35.0274208,23.6596019 C37.4591066,24.1834699 39.1999346,24.7101304 40.2510215,25.2401418 C41.302667,25.7690363 42.0683632,26.431411 42.5469932,27.2222394 C43.0256231,28.0141849 43.2657758,28.8954895 43.2657758,29.8639193 C43.2657758,31.0127428 42.9474339,32.0727657 42.3090744,33.0384031 C41.671832,34.0057158 40.7815915,34.7390194 39.6383529,35.2366381 C38.4939973,35.7331399 37.050847,35.98167 35.3105776,35.98167 C32.2544947,35.98167 30.1389168,35.3946921 28.9621685,34.2252043 C27.7843032,33.0540409 27.1185776,31.4003382 26.9644331,29.5975173 L26.9644331,29.5975173 Z M44.4710074,29.5975173 L49.7711219,29.5975173 C49.8856133,30.4581576 50.1179471,30.9479575 50.4681233,31.3975457 C51.0366708,32.1196793 51.8492806,32.4804669 52.9070695,32.4804669 C53.695664,32.4804669 54.3033062,32.2972806 54.7322302,31.9286741 C55.1589201,31.5634186 55.3722651,31.1344947 55.3722651,30.6424609 C55.3722651,30.1766763 55.1684145,29.7600393 54.7579209,29.3947837 C54.3491028,29.0345547 53.3974279,28.6910804 51.909598,28.3638026 C49.4695348,27.8170363 47.7309408,27.0898762 46.6910237,26.1812053 C45.6438462,25.2825874 45.1210952,24.1281789 45.1210952,22.7202138 C45.1210952,21.802607 45.3880556,20.9380573 45.9242105,20.1187456 C46.4603654,19.3005509 47.2645978,18.656048 48.3402585,18.185237 C49.4153608,17.7161014 50.8897867,17.4792997 52.7618609,17.4792997 C55.0600665,17.4792997 56.8120644,17.9065481 58.0195299,18.7582525 C59.2247614,19.6093984 59.9424271,21.1190095 60.1719684,22.9787968 L54.9232353,22.9787968 C54.7836117,22.1790325 54.4926359,21.7473161 54.0497497,21.3820605 C53.6057464,21.0123371 52.9947532,20.8302678 52.2139776,20.8302678 C51.5694748,20.8302678 51.0852599,20.9687745 50.7596575,21.2413199 C50.4346136,21.5149823 50.2720916,21.8478451 50.2720916,22.2382329 C50.2720916,22.5163632 50.4050134,22.7682443 50.6736493,22.9972272 C50.9333493,23.2351459 51.5538369,23.4563098 52.5345536,23.6596019 C54.9662394,24.1834699 56.7070674,24.7101304 57.7592713,25.2401418 C58.8109168,25.7690363 59.576613,26.431411 60.053009,27.2222394 C60.5316389,28.0141849 60.7717917,28.8954895 60.7717917,29.8639193 C60.7717917,31.0127428 60.4534497,32.0727657 59.8162073,33.0384031 C59.1778478,34.0057158 58.2892828,34.7390194 57.1438102,35.2366381 C56.0005716,35.7331399 54.5585383,35.98167 52.8177104,35.98167 C49.761069,35.98167 47.6449326,35.3946921 46.4681843,34.2252043 C45.292553,33.0540409 44.6262689,31.4003382 44.4710074,29.5975173 L44.4710074,29.5975173 Z M69.4217573,22.859279 C70.0980944,22.0718015 70.9955953,21.6791797 72.1137017,21.6791797 C73.2787216,21.6791797 74.2024718,22.0662165 74.8832768,22.8397317 C75.5651988,23.6121298 75.9053221,24.8391426 75.9053221,26.5168606 C75.9053221,28.5129206 75.5802782,29.897429 74.9279564,30.6687101 C74.2745176,31.4444592 73.3518844,31.8303791 72.1617322,31.8303791 C71.0045312,31.8303791 70.0880415,31.4344063 69.4150554,30.6458118 C68.7409523,29.8572173 68.4058555,28.5615097 68.4058555,26.7614813 C68.406414,24.9452566 68.7443032,23.643964 69.4217573,22.859279 L69.4217573,22.859279 Z M64.0920425,31.9677687 C64.9158222,33.3606545 65.9931584,34.3782318 67.3195833,35.0188252 C68.6460082,35.6599771 70.3214922,35.9811115 72.3460355,35.9811115 C74.3365105,35.9811115 76.0013831,35.6113881 77.3367439,34.8674731 C78.6709877,34.1224412 79.689682,33.0819656 80.3967363,31.7410199 C81.1037906,30.4017497 81.4556422,28.6866125 81.4556422,26.5933744 C81.4556422,23.7193608 80.6486174,21.4809141 79.0317753,19.8802683 C77.4149332,18.2807396 75.1133766,17.4787412 72.1259885,17.4787412 C69.2100878,17.4787412 66.9370145,18.2935849 65.303976,19.9188045 C63.6698206,21.542907 62.8549768,23.8193313 62.8549768,26.743051 C62.8549768,28.8329381 63.2677044,30.576 64.0920425,31.9677687 L64.0920425,31.9677687 Z M81.3149016,17.7792113 L98.1669201,17.7792113 L98.1669201,22.1790325 L92.5166294,22.1790325 L92.5166294,35.6811999 L86.9663092,35.6811999 L86.9663092,22.1790325 L81.3149016,22.1790325 L81.3149016,17.7792113 L81.3149016,17.7792113 Z" id="Shape" fill="#000000" fill-rule="nonzero"/>
            <path d="M35.481477,1.29021434 L46.3274437,1.29021434 L46.3274437,4.38650886 L42.8351764,4.38650886 L42.8351764,13.0616068 L38.9748612,13.0616068 L38.9748612,4.38650886 L35.481477,4.38650886 L35.481477,1.29021434 L35.481477,1.29021434 Z M56.0910477,8.62660049 L52.3418729,8.62660049 L52.3418729,5.54929479 L56.0910477,5.54929479 L56.0910477,1.82804472 L59.1789648,1.82804472 L59.1789648,5.54929479 L62.9130603,5.54929479 L62.9130603,8.62660049 L59.1789648,8.62660049 L59.1789648,12.3646054 L56.0910477,12.3646054 L56.0910477,8.62660049 L56.0910477,8.62660049 Z" id="Shape" fill="#FFFFFF" fill-rule="nonzero"/>
        </g>
    </g>
</svg>