<?xml version="1.0" encoding="UTF-8"?>
<svg width="190px" height="80px" viewBox="0 0 190 80" version="1.1" xmlns="http://www.w3.org/2000/svg" xmlns:xlink="http://www.w3.org/1999/xlink">
    <!-- Generator: Sketch 53 (72520) - https://sketchapp.com -->
    <title>brands / Claude-Bernard-m</title>
    <desc>Created with Sketch.</desc>
    <defs>
        <polygon id="path-1" points="0 0.328164706 6.02816471 0.328164706 6.02816471 9.23145882 0 9.23145882"/>
    </defs>
    <g id="brands-/-Claude-Bernard-m" stroke="none" stroke-width="1" fill="none" fill-rule="evenodd" opacity="0.75">
        <g id="Claude-Bernard" transform="translate(37.000000, 16.000000)">
            <g id="Group-3" transform="translate(0.000000, 25.144235)">
                <mask id="mask-2" fill="white">
                    <use xlink:href="#path-1"/>
                </mask>
                <g id="Clip-2"/>
                <path d="M6.02816471,1.88604706 L4.76675294,1.88604706 C3.22722353,1.88604706 1.70604706,2.88769412 1.70604706,4.77945882 C1.70604706,6.67122353 3.22722353,7.67287059 4.76675294,7.67287059 L6.02816471,7.67287059 L6.02816471,9.23145882 L4.47028235,9.23145882 C2.39287059,9.23145882 -7.05882353e-05,7.63616471 -7.05882353e-05,4.77945882 C-7.05882353e-05,1.92345882 2.39287059,0.328164706 4.47028235,0.328164706 L6.02816471,0.328164706 L6.02816471,1.88604706 Z" id="Fill-1" fill="#000000" mask="url(#mask-2)"/>
            </g>
            <polygon id="Fill-4" fill="#000000" points="7.65952941 34.3750588 9.29223529 34.3750588 9.29223529 21.3910588 7.65952941 21.3910588"/>
            <path d="M29.2854353,25.4720471 L29.2854353,30.6652235 C29.2854353,33.0024 27.6534353,34.5609882 25.4828471,34.5609882 C23.3129647,34.5609882 21.6802588,33.0024 21.6802588,30.6652235 L21.6802588,25.4720471 L23.3129647,25.4720471 L23.3129647,30.6652235 C23.3129647,32.0381647 24.3146118,33.0024 25.4828471,33.0024 C26.6517882,33.0024 27.6534353,32.0381647 27.6534353,30.6652235 L27.6534353,25.4720471 L29.2854353,25.4720471 Z" id="Fill-6" fill="#000000"/>
            <path d="M77.2309412,25.4720471 L78.7895294,25.4720471 L78.7895294,26.4920471 L78.8269412,26.4920471 C79.3838824,25.6202824 80.1434118,25.2864 81.2382353,25.2864 L81.6088235,25.2864 L81.6088235,26.8442824 L81.3667059,26.8442824 C79.7904706,26.8442824 78.8636471,27.8085176 78.8636471,30.2205176 L78.8636471,34.3753412 L77.2309412,34.3753412 L77.2309412,25.4720471 Z" id="Fill-7" fill="#000000"/>
            <path d="M82.4058353,34.3754824 L82.4058353,29.1823059 C82.4058353,26.8444235 84.0385412,25.2865412 86.2084235,25.2865412 C88.3783059,25.2865412 90.0103059,26.8444235 90.0103059,29.1823059 L90.0103059,34.3754824 L88.3783059,34.3754824 L88.3783059,29.1823059 C88.3783059,27.8093647 87.3766588,26.8444235 86.2084235,26.8444235 C85.0401882,26.8444235 84.0385412,27.8093647 84.0385412,29.1823059 L84.0385412,34.3754824 L82.4058353,34.3754824 Z" id="Fill-8" fill="#000000"/>
            <path d="M101.972682,25.4720471 L103.530565,25.4720471 L103.530565,26.4920471 L103.567976,26.4920471 C104.124918,25.6202824 104.885153,25.2864 105.979271,25.2864 L106.350565,25.2864 L106.350565,26.8442824 L106.109153,26.8442824 C104.532918,26.8442824 103.605388,27.8085176 103.605388,30.2205176 L103.605388,34.3753412 L101.972682,34.3753412 L101.972682,25.4720471 Z" id="Fill-9" fill="#000000"/>
            <path d="M15.5606824,32.8679294 C13.8948,32.8679294 12.5437412,31.5493412 12.5437412,29.9236941 C12.5437412,28.2973412 13.8948,26.9794588 15.5606824,26.9794588 C17.2265647,26.9794588 18.4886824,28.2980471 18.4886824,29.9236941 C18.4886824,31.5500471 17.2265647,32.8679294 15.5606824,32.8679294 M20.1206824,29.9236941 C20.1206824,29.8622824 20.1143294,29.8022824 20.1115059,29.7408706 L20.1115059,29.6356941 L20.1058588,29.6356941 C19.9533882,27.3119294 17.9797412,25.4716941 15.5606824,25.4716941 C13.0420941,25.4716941 11.0006824,27.4651059 11.0006824,29.9236941 C11.0006824,32.3822824 13.0420941,34.3749882 15.5606824,34.3749882 C16.6759765,34.3749882 17.6959765,33.9832235 18.4886824,33.3345176 L18.4886824,34.3749882 L20.1115059,34.3749882 L20.1115059,30.1058118 C20.1143294,30.0451059 20.1206824,29.9851059 20.1206824,29.9236941" id="Fill-10" fill="#000000"/>
            <path d="M95.8713882,32.8679294 C94.2055059,32.8679294 92.8551529,31.5493412 92.8551529,29.9236941 C92.8551529,28.2973412 94.2055059,26.9794588 95.8713882,26.9794588 C97.5358588,26.9794588 98.7986824,28.2980471 98.7986824,29.9236941 C98.7986824,31.5500471 97.5358588,32.8679294 95.8713882,32.8679294 M100.431388,29.9236941 C100.431388,29.8622824 100.424329,29.8022824 100.421506,29.7408706 L100.421506,29.6356941 L100.415859,29.6356941 C100.264094,27.3119294 98.2904471,25.4716941 95.8713882,25.4716941 C93.3520941,25.4716941 91.3106824,27.4651059 91.3106824,29.9236941 C91.3106824,32.3822824 93.3520941,34.3749882 95.8713882,34.3749882 C96.9866824,34.3749882 98.0066824,33.9832235 98.7986824,33.3345176 L98.7986824,34.3749882 L100.421506,34.3749882 L100.421506,30.1058118 C100.424329,30.0451059 100.431388,29.9851059 100.431388,29.9236941" id="Fill-11" fill="#000000"/>
            <path d="M38.0741647,29.9237647 C38.0741647,31.5501176 36.8120471,32.868 35.1461647,32.868 C33.4802824,32.868 32.1299294,31.5501176 32.1299294,29.9237647 C32.1299294,28.2981176 33.4802824,26.9795294 35.1461647,26.9795294 C36.8120471,26.9795294 38.0741647,28.2974118 38.0741647,29.9237647 M39.6969882,29.7416471 L39.6969882,21.3917647 L38.0741647,21.3917647 L38.0741647,26.5129412 C37.2821647,25.8642353 36.2614588,25.4724706 35.1461647,25.4724706 C32.6275765,25.4724706 30.5854588,27.4651765 30.5854588,29.9237647 C30.5854588,32.3823529 32.6275765,34.3750588 35.1461647,34.3750588 C37.5652235,34.3750588 39.5388706,32.5355294 39.6913412,30.2117647 L39.6969882,30.2117647 L39.6969882,30.1058824 C39.6998118,30.0451765 39.7061647,29.9851765 39.7061647,29.9237647 C39.7061647,29.8623529 39.6998118,29.8023529 39.6969882,29.7416471" id="Fill-12" fill="#000000"/>
            <path d="M114.267035,29.9237647 C114.267035,31.5501176 113.004918,32.868 111.339035,32.868 C109.673153,32.868 108.3228,31.5501176 108.3228,29.9237647 C108.3228,28.2981176 109.673153,26.9795294 111.339035,26.9795294 C113.004918,26.9795294 114.267035,28.2974118 114.267035,29.9237647 M115.889859,29.7416471 L115.889859,21.3917647 L114.267035,21.3917647 L114.267035,26.5129412 C113.475035,25.8642353 112.454329,25.4724706 111.339035,25.4724706 C108.820447,25.4724706 106.779035,27.4651765 106.779035,29.9237647 C106.779035,32.3823529 108.820447,34.3750588 111.339035,34.3750588 C113.758094,34.3750588 115.731741,32.5355294 115.884918,30.2117647 L115.889859,30.2117647 L115.889859,30.1058824 C115.892682,30.0451765 115.899741,29.9851765 115.899741,29.9237647 C115.899741,29.8623529 115.892682,29.8023529 115.889859,29.7416471" id="Fill-13" fill="#000000"/>
            <path d="M61.0776706,26.9792471 C62.7428471,26.9792471 64.0932,28.2978353 64.0932,29.9234824 C64.0932,31.5498353 62.7428471,32.8684235 61.0776706,32.8684235 C59.4117882,32.8684235 58.1496706,31.5498353 58.1496706,29.9234824 C58.1496706,28.2978353 59.4117882,26.9792471 61.0776706,26.9792471 M56.5169647,29.9234824 C56.5169647,29.9848941 56.5240235,30.0456 56.5268471,30.1063059 L56.5268471,30.2114824 L56.5317882,30.2114824 C56.6849647,32.5352471 58.6586118,34.3754824 61.0776706,34.3754824 C63.5955529,34.3754824 65.6383765,32.3820706 65.6383765,29.9234824 C65.6383765,27.4648941 63.5955529,25.4721882 61.0776706,25.4721882 C59.9623765,25.4721882 58.9416706,25.8639529 58.1496706,26.5126588 L58.1496706,21.3914824 L56.5268471,21.3914824 L56.5268471,29.7413647 C56.5240235,29.8027765 56.5169647,29.8620706 56.5169647,29.9234824" id="Fill-14" fill="#000000"/>
            <path d="M45.6379059,27.0168 C47.0129647,27.0168 48.1113176,27.9160941 48.4529647,29.1450353 L42.7416706,29.1450353 C43.1044941,27.9160941 44.2621412,27.0168 45.6379059,27.0168 M46.1242588,34.3855059 C47.6376706,34.2203294 48.9209647,33.2970353 49.5908471,32.0031529 L47.7626118,32.0031529 C47.2374353,32.5593882 46.4913176,32.9059765 45.6379059,32.9059765 C44.2621412,32.9059765 43.1044941,32.0059765 42.7416706,30.7777412 L50.0122588,30.7749176 C50.0602588,30.5109176 50.0892,30.2398588 50.0892,29.9610353 C50.0892,27.5031529 48.0964941,25.5097412 45.6379059,25.5097412 C43.1193176,25.5097412 41.0772,27.5031529 41.0772,29.9610353 C41.0772,32.4196235 43.1193176,34.4130353 45.6379059,34.4130353 C45.7889647,34.4130353 45.9379059,34.4052706 46.0854353,34.3897412 C46.0981412,34.3890353 46.1108471,34.3869176 46.1242588,34.3855059" id="Fill-15" fill="#000000"/>
            <path d="M71.3419765,27.0168 C72.7170353,27.0168 73.8160941,27.9160941 74.1577412,29.1450353 L68.4457412,29.1450353 C68.8085647,27.9160941 69.9662118,27.0168 71.3419765,27.0168 M71.8283294,34.3855059 C73.3417412,34.2203294 74.6250353,33.2970353 75.2949176,32.0031529 L73.4666824,32.0031529 C72.9415059,32.5593882 72.1953882,32.9059765 71.3419765,32.9059765 C69.9662118,32.9059765 68.8085647,32.0059765 68.4457412,30.7777412 L75.7156235,30.7749176 C75.7650353,30.5109176 75.7932706,30.2398588 75.7932706,29.9610353 C75.7932706,27.5031529 73.8005647,25.5097412 71.3419765,25.5097412 C68.8233882,25.5097412 66.7812706,27.5031529 66.7812706,29.9610353 C66.7812706,32.4196235 68.8233882,34.4130353 71.3419765,34.4130353 C71.4930353,34.4130353 71.6419765,34.4052706 71.7895059,34.3897412 C71.8022118,34.3890353 71.8149176,34.3869176 71.8283294,34.3855059" id="Fill-16" fill="#000000"/>
            <path d="M58.1266588,13.7422588 L58.1266588,7.85237647 L63.7984235,7.87214118 C63.6106588,10.9589647 61.1852471,13.4507294 58.1266588,13.7422588 M51.2407765,7.48602353 C51.2407765,4.22272941 53.7410118,1.53331765 56.9259529,1.22978824 L56.9259529,13.7422588 C53.7410118,13.4387294 51.2407765,10.7493176 51.2407765,7.48602353 M63.7567765,6.67143529 L58.1266588,6.65167059 L58.1266588,1.22978824 C61.0426588,1.5072 63.3819529,3.78508235 63.7567765,6.67143529 M57.5259529,0.000141176471 C53.3986588,0.000141176471 50.0400706,3.35802353 50.0400706,7.48602353 C50.0400706,11.6140235 53.3986588,14.9719059 57.5259529,14.9719059 C61.6539529,14.9719059 65.0125412,11.6140235 65.0125412,7.48602353 C65.0125412,3.35802353 61.6539529,0.000141176471 57.5259529,0.000141176471" id="Fill-17" fill="#000000"/>
            <path d="M1.20797647,46.6278353 L4.17762353,46.6278353 C4.67244706,46.6278353 4.86515294,46.4400706 4.86515294,46.0878353 C4.86515294,45.0544235 1.20797647,45.4539529 1.20797647,43.5043059 C1.20797647,42.5054824 1.92021176,41.9774824 3.18727059,41.9774824 L5.68609412,41.9774824 L5.68609412,42.9636 L3.00656471,42.9636 C2.48774118,42.9636 2.34232941,43.1047765 2.31832941,43.4570118 C2.31832941,44.4318353 5.97621176,44.0210118 5.97621176,46.0412471 C5.97621176,47.1099529 5.20327059,47.6146588 4.17762353,47.6146588 L1.20797647,47.6146588 L1.20797647,46.6278353 Z" id="Fill-18" fill="#000000"/>
            <path d="M15.2573647,41.9775529 L15.2573647,45.8062588 C15.2573647,46.8629647 14.3644235,47.7326118 13.1813647,47.7326118 C12.5298353,47.7326118 11.8776,47.4735529 11.4914824,46.9335529 C11.1053647,47.4735529 10.4531294,47.7326118 9.8016,47.7326118 C8.61924706,47.7326118 7.7256,46.8629647 7.7256,45.8062588 L7.7256,41.9775529 L8.78795294,41.9775529 L8.78795294,45.5719059 C8.78795294,46.2876706 9.19807059,46.7457882 9.82630588,46.7457882 C10.5138353,46.7457882 10.9606588,46.3702588 10.9606588,45.4067294 L10.9606588,41.9775529 L12.0223059,41.9775529 L12.0223059,45.4067294 C12.0223059,46.3702588 12.4691294,46.7457882 13.1573647,46.7457882 C13.7848941,46.7457882 14.1950118,46.2876706 14.1950118,45.5719059 L14.1950118,41.9775529 L15.2573647,41.9775529 Z" id="Fill-19" fill="#000000"/>
            <path d="M17.9011765,47.6145882 L18.9635294,47.6145882 L18.9635294,41.9774118 L17.9011765,41.9774118 L17.9011765,47.6145882 Z M18.432,40.0983529 C18.8428235,40.0983529 19.0722353,40.404 19.0722353,40.7209412 C19.0722353,41.0378824 18.8428235,41.3435294 18.432,41.3435294 C18.0218824,41.3435294 17.7924706,41.0378824 17.7924706,40.7209412 C17.7924706,40.404 18.0218824,40.0983529 18.432,40.0983529 L18.432,40.0983529 Z" id="Fill-20" fill="#000000"/>
            <path d="M21.3532235,46.6278353 L24.3228706,46.6278353 C24.8176941,46.6278353 25.0104,46.4400706 25.0104,46.0878353 C25.0104,45.0544235 21.3532235,45.4539529 21.3532235,43.5043059 C21.3532235,42.5054824 22.0654588,41.9774824 23.3325176,41.9774824 L25.8313412,41.9774824 L25.8313412,42.9636 L23.1518118,42.9636 C22.6329882,42.9636 22.4875765,43.1047765 22.4635765,43.4570118 C22.4635765,44.4318353 26.1207529,44.0210118 26.1207529,46.0412471 C26.1207529,47.1099529 25.3485176,47.6146588 24.3228706,47.6146588 L21.3532235,47.6146588 L21.3532235,46.6278353 Z" id="Fill-21" fill="#000000"/>
            <path d="M27.6175765,46.6278353 L30.5865176,46.6278353 C31.0813412,46.6278353 31.2747529,46.4400706 31.2747529,46.0878353 C31.2747529,45.0544235 27.6175765,45.4539529 27.6175765,43.5043059 C27.6175765,42.5054824 28.3298118,41.9774824 29.5968706,41.9774824 L32.0956941,41.9774824 L32.0956941,42.9636 L29.4161647,42.9636 C28.8973412,42.9636 28.7519294,43.1047765 28.7279294,43.4570118 C28.7279294,44.4318353 32.3851059,44.0210118 32.3851059,46.0412471 C32.3851059,47.1099529 31.6128706,47.6146588 30.5865176,47.6146588 L27.6175765,47.6146588 L27.6175765,46.6278353 Z" id="Fill-22" fill="#000000"/>
            <path d="M57.6492706,44.8913647 C57.6492706,45.9290118 56.8212706,46.7704235 55.7292706,46.7704235 C54.6358588,46.7704235 53.7499765,45.9290118 53.7499765,44.8913647 C53.7499765,43.8537176 54.6358588,43.0123059 55.7292706,43.0123059 C56.8212706,43.0123059 57.6492706,43.8537176 57.6492706,44.8913647 M58.7137412,44.7748941 L58.7137412,39.4461882 L57.6492706,39.4461882 L57.6492706,42.7144235 C57.1290353,42.3007765 56.4598588,42.0501882 55.7292706,42.0501882 C54.0768,42.0501882 52.7377412,43.3228941 52.7377412,44.8913647 C52.7377412,46.4605412 54.0768,47.7318353 55.7292706,47.7318353 C57.3153882,47.7318353 58.6099765,46.5579529 58.7102118,45.0756 L58.7137412,45.0756 L58.7137412,45.0078353 C58.7151529,44.9690118 58.7200941,44.9308941 58.7200941,44.8913647 C58.7200941,44.8518353 58.7151529,44.8144235 58.7137412,44.7748941" id="Fill-23" fill="#000000"/>
            <path d="M62.6383765,43.0280471 C63.5376706,43.0280471 64.2555529,43.6005176 64.4786118,44.3819294 L60.7452,44.3819294 C60.9816706,43.6005176 61.7397882,43.0280471 62.6383765,43.0280471 M62.9560235,47.7144 C63.9463765,47.6099294 64.7842588,47.0226353 65.2219059,46.1988706 L64.0275529,46.1988706 C63.6837882,46.5532235 63.1967294,46.7734588 62.6383765,46.7734588 C61.7397882,46.7734588 60.9823765,46.2009882 60.7452,45.4195765 L65.4972,45.4188706 C65.5296706,45.2501647 65.5480235,45.0779294 65.5480235,44.9007529 C65.5480235,43.3372235 64.2449647,42.0694588 62.6383765,42.0694588 C60.9922588,42.0694588 59.6574353,43.3372235 59.6574353,44.9007529 C59.6574353,46.4642824 60.9922588,47.7320471 62.6383765,47.7320471 C62.7379059,47.7320471 62.8346118,47.7271059 62.9306118,47.7179294 C62.9390824,47.7172235 62.9475529,47.7158118 62.9560235,47.7144" id="Fill-24" fill="#000000"/>
            <path d="M37.0670118,47.6039294 L37.0670118,43.7752235 C37.0670118,42.7185176 37.9599529,41.8488706 39.1430118,41.8488706 C39.7945412,41.8488706 40.4467765,42.1079294 40.8328941,42.6479294 C41.2190118,42.1079294 41.8712471,41.8488706 42.5227765,41.8488706 C43.7051294,41.8488706 44.5987765,42.7185176 44.5987765,43.7752235 L44.5987765,47.6039294 L43.5364235,47.6039294 L43.5364235,44.0102824 C43.5364235,43.2931059 43.1263059,42.8356941 42.4980706,42.8356941 C41.8105412,42.8356941 41.3637176,43.2112235 41.3637176,44.1740471 L41.3637176,47.6039294 L40.3013647,47.6039294 L40.3013647,44.1740471 C40.3013647,43.2112235 39.8552471,42.8356941 39.1670118,42.8356941 C38.5394824,42.8356941 38.1293647,43.2931059 38.1293647,44.0102824 L38.1293647,47.6039294 L37.0670118,47.6039294 Z" id="Fill-25" fill="#000000"/>
            <path d="M48.5758588,46.5995294 C47.4873882,46.5995294 46.6043294,45.7609412 46.6043294,44.7268235 C46.6043294,43.6927059 47.4873882,42.8534118 48.5758588,42.8534118 C49.6650353,42.8534118 50.4895059,43.6927059 50.4895059,44.7268235 C50.4895059,45.7609412 49.6650353,46.5995294 48.5758588,46.5995294 M51.5568,44.7268235 C51.5568,44.6872941 51.5525647,44.6491765 51.5511529,44.6103529 L51.5511529,44.5432941 L51.5469176,44.5432941 C51.4473882,43.0658824 50.1570353,41.8955294 48.5758588,41.8955294 C46.9297412,41.8955294 45.5949176,43.1625882 45.5949176,44.7268235 C45.5949176,46.2903529 46.9297412,47.5581176 48.5758588,47.5581176 C49.3050353,47.5581176 49.9720941,47.3089412 50.4895059,46.896 L50.4895059,47.5581176 L51.5511529,47.5581176 L51.5511529,44.8425882 C51.5525647,44.8037647 51.5568,44.7656471 51.5568,44.7268235" id="Fill-26" fill="#000000"/>
            <path d="M106.524424,42.8185412 C107.423718,42.8185412 108.1416,43.3910118 108.364659,44.1724235 L104.631247,44.1724235 C104.868424,43.3910118 105.626541,42.8185412 106.524424,42.8185412 M106.842776,47.5048941 C107.832424,47.4004235 108.670306,46.8131294 109.107953,45.9893647 L107.914306,45.9893647 C107.569835,46.3437176 107.082071,46.5639529 106.524424,46.5639529 C105.626541,46.5639529 104.869129,45.9914824 104.631247,45.2100706 L109.383953,45.2086588 C109.416424,45.0406588 109.434776,44.8684235 109.434776,44.6912471 C109.434776,43.1277176 108.131718,41.8606588 106.524424,41.8606588 C104.878306,41.8606588 103.543482,43.1277176 103.543482,44.6912471 C103.543482,46.2554824 104.878306,47.5225412 106.524424,47.5225412 C106.624659,47.5225412 106.720659,47.5176 106.817365,47.5084235 C106.826541,47.5077176 106.8336,47.5063059 106.842776,47.5048941" id="Fill-27" fill="#000000"/>
            <path d="M76.8063529,41.9775529 L76.8063529,45.8062588 C76.8063529,46.8629647 75.9127059,47.7326118 74.7303529,47.7326118 C74.0788235,47.7326118 73.4265882,47.4735529 73.0404706,46.9335529 C72.6536471,47.4735529 72.0014118,47.7326118 71.3505882,47.7326118 C70.1682353,47.7326118 69.2745882,46.8629647 69.2745882,45.8062588 L69.2745882,41.9775529 L70.3369412,41.9775529 L70.3369412,45.5719059 C70.3369412,46.2876706 70.7477647,46.7457882 71.3752941,46.7457882 C72.0621176,46.7457882 72.5096471,46.3702588 72.5096471,45.4067294 L72.5096471,41.9775529 L73.572,41.9775529 L73.572,45.4067294 C73.572,46.3702588 74.0181176,46.7457882 74.7056471,46.7457882 C75.3338824,46.7457882 75.744,46.2876706 75.744,45.5719059 L75.744,41.9775529 L76.8063529,41.9775529 Z" id="Fill-28" fill="#000000"/>
            <path d="M90.0030353,42.9639529 L87.9277412,42.9639529 L87.9277412,45.9237176 C87.9277412,46.4524235 88.1804471,46.6288941 88.7239765,46.6288941 L90.0030353,46.6288941 L90.0030353,47.6150118 L88.5785647,47.6150118 C87.4922118,47.6150118 86.8653882,46.9105412 86.8653882,45.7945412 L86.8653882,40.5681882 L87.9277412,40.5681882 L87.9277412,41.9778353 L90.0030353,41.9778353 L90.0030353,42.9639529 Z" id="Fill-29" fill="#000000"/>
            <path d="M95.4184941,42.9639529 L94.5982588,42.9639529 C93.5959059,42.9639529 92.6069647,43.5978353 92.6069647,44.7964235 C92.6069647,45.9943059 93.5959059,46.6288941 94.5982588,46.6288941 L95.4184941,46.6288941 L95.4184941,47.6150118 L94.4041412,47.6150118 C93.0523765,47.6150118 91.4959059,46.6048941 91.4959059,44.7964235 C91.4959059,42.9872471 93.0523765,41.9778353 94.4041412,41.9778353 L95.4184941,41.9778353 L95.4184941,42.9639529 Z" id="Fill-30" fill="#000000"/>
            <path d="M97.0204941,47.6149412 L97.0204941,39.3942353 L98.0821412,39.3942353 L98.0821412,42.4711765 C98.4082588,42.1189412 98.9517882,41.8605882 99.5666118,41.8605882 C100.907082,41.8605882 101.968729,42.4238824 101.968729,44.3269412 L101.968729,47.6149412 L100.907082,47.6149412 L100.907082,44.3269412 C100.907082,43.1756471 100.254847,42.8467059 99.4946118,42.8467059 C98.7216706,42.8467059 98.0821412,43.4572941 98.0821412,44.3269412 L98.0821412,47.6149412 L97.0204941,47.6149412 Z" id="Fill-31" fill="#000000"/>
            <path d="M110.707976,46.6284706 L113.676918,46.6284706 C114.171741,46.6284706 114.365859,46.44 114.365859,46.0877647 C114.365859,45.0543529 110.707976,45.4538824 110.707976,43.5042353 C110.707976,42.5061176 111.420212,41.9774118 112.687976,41.9774118 L115.1868,41.9774118 L115.1868,42.9642353 L112.506565,42.9642353 C111.987035,42.9642353 111.842329,43.1047059 111.818329,43.4569412 C111.818329,44.4317647 115.475506,44.0209412 115.475506,46.0411765 C115.475506,47.1098824 114.702565,47.6145882 113.676918,47.6145882 L110.707976,47.6145882 L110.707976,46.6284706 Z" id="Fill-32" fill="#000000"/>
            <path d="M81.5738118,46.6099059 C80.4853412,46.6099059 79.6022824,45.7720235 79.6022824,44.7379059 C79.6022824,43.7037882 80.4853412,42.8644941 81.5738118,42.8644941 C82.6636941,42.8644941 83.4881647,43.7037882 83.4881647,44.7379059 C83.4881647,45.7720235 82.6636941,46.6099059 81.5738118,46.6099059 M84.5554588,44.7379059 C84.5554588,44.6983765 84.5505176,44.6602588 84.5498118,44.6214353 L84.5498118,44.5543765 L84.5448706,44.5543765 C84.4453412,43.0762588 83.1556941,41.9066118 81.5738118,41.9066118 C79.9276941,41.9066118 78.5928706,43.1736706 78.5928706,44.7379059 C78.5928706,46.3014353 79.9276941,47.5692 81.5738118,47.5692 C82.3022824,47.5692 82.9707529,47.3200235 83.4881647,46.9070824 L83.4881647,47.5692 L84.5498118,47.5692 L84.5498118,44.8536706 C84.5505176,44.8148471 84.5554588,44.7767294 84.5554588,44.7379059" id="Fill-33" fill="#000000"/>
        </g>
    </g>
</svg>