<?xml version="1.0" encoding="UTF-8"?>
<svg width="190px" height="80px" viewBox="0 0 190 80" version="1.1" xmlns="http://www.w3.org/2000/svg" xmlns:xlink="http://www.w3.org/1999/xlink">
    <!-- Generator: Sketch 53 (72520) - https://sketchapp.com -->
    <title>brands / Tag-Heuer-m</title>
    <desc>Created with Sketch.</desc>
    <g id="brands-/-Tag-Heuer-m" stroke="none" stroke-width="1" fill="none" fill-rule="evenodd">
        <g id="TAG-Heuer-Copy" transform="translate(44.000000, 14.000000)">
            <path d="M83.5858368,40.3761945 L90.9741665,40.3761945 C90.9741665,40.3761945 90.7324751,37.0394917 87.2486391,37.0394917 C85.2823873,37.0394917 84.0146428,38.5056426 83.5858368,40.3761945 L83.5858368,40.3761945 Z M83.4245678,41.4335148 C83.4157404,41.5678041 83.4118785,41.6954066 83.4118785,41.830718 C83.4118785,44.659183 85.2642233,46.7733125 88.0060519,46.7733125 C90.4798344,46.7733125 92.2743346,45.0430978 92.2743346,45.0430978 L92.2743346,46.3821998 C92.2743346,46.3821998 90.6091891,47.9207127 87.8629468,47.9207127 C83.6926564,47.9207127 82.0456749,44.3564465 82.0456749,41.8450712 C82.0456749,38.5647588 84.1699279,35.8584447 87.2568723,35.8584447 C90.7457161,35.8584447 92.4939576,38.5763436 92.4939576,41.4335148 L83.4245678,41.4335148 Z M58.6213445,40.3761945 L66.0107351,40.3761945 C66.0107351,40.3761945 65.7679827,37.0394917 62.2852077,37.0394917 C60.3189984,37.0394917 59.0501504,38.5056426 58.6213445,40.3761945 L58.6213445,40.3761945 Z M58.4600754,41.4335148 C58.4523515,41.5678041 58.4473861,41.6954066 58.4473861,41.830718 C58.4473861,44.659183 60.3007919,46.7733125 63.0426205,46.7733125 C65.5152995,46.7733125 67.3109456,45.0430978 67.3109456,45.0430978 L67.3109456,46.3821998 C67.3109456,46.3821998 65.6457577,47.9207127 62.898412,47.9207127 C58.7281215,47.9207127 57.0822435,44.3564465 57.0822435,41.8450712 C57.0822435,38.5647588 59.2053931,35.8584447 62.2923799,35.8584447 C65.7822847,35.8584447 67.5294652,38.5763436 67.5294652,41.4335148 L58.4600754,41.4335148 Z M21.8924017,42.6494438 L19.8149592,37.6388742 L17.8943721,42.6494438 L21.8924017,42.6494438 Z M16.955871,45.0850925 L15.927611,47.7173835 L12.3380165,47.7173835 L17.8035521,34.3138413 L21.6969691,34.3138413 L27.6100264,47.7173835 L24.021026,47.7173835 L22.9250754,45.0850925 L16.955871,45.0850925 Z M102.984085,37.2383915 C102.984085,37.2383915 101.806651,35.9053799 100.334222,35.9053799 C98.3613078,35.9053799 96.3422616,38.9884962 96.3422616,38.9884962 L96.3466753,36.1086665 L95.0552921,36.1086665 L95.0552921,47.6836941 L96.3422616,47.6836941 L96.3466753,40.3264483 C96.3466753,40.3264483 98.1741932,37.14171 99.9213313,37.14171 C101.120239,37.14171 102.294363,38.4271901 102.294363,38.4271901 L102.984128,37.2383915 L102.984085,37.2383915 Z M78.0498945,44.3348955 C78.0498945,44.3348955 77.1641879,46.9031297 74.2869357,46.9031297 C71.9485768,46.9031297 71.2015616,45.2563507 71.2015616,43.5968369 L71.2015616,36.0920987 L69.9157379,36.0920987 L69.9135311,43.3211883 C69.9135311,47.6986435 73.1810544,47.9422637 74.085986,47.9422637 C76.8328224,47.9422637 78.0542658,45.9319709 78.0542658,45.9319709 L78.0498945,47.6666151 L79.3401743,47.6666151 L79.3401743,36.0920987 L78.0542658,36.0920987 L78.0498945,44.3348955 Z M53.3479312,41.4241022 L53.3435175,47.6754314 L54.6349007,47.6754314 L54.6349007,34.3005956 L53.3435175,34.3005956 L53.3479312,40.3855645 L45.0354026,40.3855645 L45.0387128,34.3005956 L43.7473296,34.3005956 L43.7473296,47.6754314 L45.0387128,47.6754314 L45.0354026,41.4241022 L53.3479312,41.4241022 Z M40.2530111,47.4986364 C37.6416407,48.0869878 34.2821516,48.2604607 31.8551796,47.1406594 C29.7843576,46.2291705 28.5078282,44.0586932 28.2430499,41.9340437 C27.9672798,39.3243684 28.9449098,37.0389807 31.0272752,35.5031936 C33.4547989,33.7602868 37.3085777,33.8171883 39.9541117,35.0297952 L39.9541117,37.685852 C37.9520836,36.761671 34.9383045,36.2197012 33.0172081,37.685852 C31.6366601,38.7476444 31.2105703,40.4336497 31.5557285,42.1185476 C31.8320503,43.4460224 32.9709493,44.647002 34.236487,45.0856461 C35.1337371,45.3740295 36.2374116,45.4662815 37.2381286,45.3397437 L37.2381286,43.1764642 L35.9159345,43.1808937 L35.9159345,40.5728369 L40.2502526,40.5728369 L40.2502526,47.4986364 L40.2530111,47.4986364 Z M8.202993,47.6367588 L8.202993,36.7323684 L13.0002382,36.7323684 L13.0002382,34.1983773 L0,34.1983773 L0,36.7323684 L4.7972876,36.7323684 L4.7972876,47.6367588 L8.202993,47.6367588 Z" id="Fill-1" fill="#3F3F3F"/>
            <g id="Group" transform="translate(37.679064, 0.004689)">
                <polygon id="Fill-3" fill="#000000" points="13.8584017 28.7820692 4.81392703e-13 21.2248589 4.81392703e-13 0.000553682343 27.7080185 0 27.7090795 21.2287347 13.8584017 28.7821118"/>
                <polygon id="Stroke-5" stroke="#000000" stroke-width="0.216" points="13.8584017 28.7820692 4.81392703e-13 21.2248589 4.81392703e-13 0.000553682343 27.7080185 0 27.7090795 21.2287347 13.8584017 28.7821118"/>
                <polygon id="Fill-7" fill="#FFFFFF" points="13.8633756 27.8208596 0.856516934 20.6602563 0.858172064 0.883872937 26.8492693 0.892135581 26.8492693 20.6657931 13.8633332 27.8208596"/>
                <polygon id="Stroke-9" stroke="#FFFFFF" stroke-width="0.216" points="13.8633756 27.8208596 0.856516934 20.6602563 0.858172064 0.883872937 26.8492693 0.892135581 26.8492693 20.6657931 13.8633332 27.8208596"/>
                <polygon id="Fill-11" fill="#CC2132" points="2.12698183 19.9233349 13.8622764 26.3779081 25.5772002 19.926657 25.5772002 14.2056703 2.12422328 14.2062665"/>
                <polygon id="Fill-13" fill="#52945D" points="25.5771832 13.5880802 25.5771832 2.16054516 2.12480045 2.16165253 2.1242063 13.5886339"/>
                <path d="M11.996733,23.9886708 L11.996733,15.2729867 L12.8394911,15.2729867 L12.8394911,23.4285146 L13.8627857,23.9461224 L14.8817091,23.4577746 L14.8817091,15.2729867 L15.7250189,15.2729867 L15.7250189,23.9892245 L13.8622764,25.001228 L11.996733,23.9886708 Z M17.116007,23.2610896 L17.116007,15.2729867 L19.4659518,15.2729867 L19.4659518,16.0071695 L17.8167635,16.0071695 L17.8167635,18.1903815 L19.4681162,17.8484188 L19.4681162,18.5798332 L17.8167635,18.9471801 L17.8167635,22.072291 L19.4670552,21.2607631 L19.4670552,21.9745022 L17.116007,23.2610896 Z M4.30402921,17.5119929 L4.30402921,19.839929 L3.60331516,19.45874 L3.60276345,15.2729867 L4.30402921,15.2729867 L4.30402921,16.7794286 L6.18221957,17.183276 L6.18221957,15.2729867 L6.88076922,15.2729867 L6.88076922,21.2220905 L6.18221957,20.8436699 L6.18221957,17.9224419 L4.30402921,17.5119929 Z M20.8382241,15.272433 L23.7419159,15.2718793 C23.9582711,15.2569725 24.0782468,15.3680071 24.1063415,15.5260195 L24.1063415,17.2374091 C24.1096094,17.4992582 24.0760399,17.597047 23.8354944,17.6589317 L23.0687025,17.8290825 L24.5500012,19.2178882 L23.9048825,19.5664525 L22.2231858,18.0041739 L21.5522216,18.1494942 L21.5522216,20.837622 L20.8382241,21.2248589 L20.8371631,15.2806957 L20.8371631,15.272433 L20.8382241,15.272433 Z M10.6062542,22.4390843 L10.6062542,23.2627933 L8.26297235,21.9728412 L8.26297235,15.2729867 L10.6068483,15.2729867 L10.6068483,16.0077232 L8.95766003,16.0077232 L8.95821174,17.7953505 L10.6079093,18.1599716 L10.6074,18.8864454 L8.95876345,18.5284685 L8.95931516,21.5894374 L10.6062542,22.4390843 Z" id="Fill-15" fill="#FFFFFF"/>
                <path d="M21.5510927,17.4086843 L21.5510927,16.0165565 L23.3263255,16.0165565 C23.3824726,16.0110197 23.4122225,16.0579975 23.4122225,16.1060827 L23.4100157,16.9595627 C23.4110767,17.018679 23.3786531,17.0313711 23.3312909,17.0346932 L21.5510927,17.4086843 Z" id="Fill-17" fill="#CC2132"/>
                <path d="M13.3420649,6.89429068 L11.4220719,9.66802626 M15.0044518,4.49177782 C14.212451,5.09759148 13.6308214,5.93842201 13.3420649,6.89484437 M15.0914098,12.5290733 L13.2281156,12.5290733 L13.2281156,11.2894211 L10.3128803,11.2894211 L9.45908797,12.5125054 L7.12790132,12.5125054 L7.39433478,12.0865959 L7.39433478,5.55246282 L5.68955109,5.55246282 L5.68955109,3.80457285 L11.310287,3.80457285 L11.310287,5.55246282 L9.43103564,5.55246282 L9.43103564,9.17805998 L13.1515977,3.80457285 L15.0909005,3.80457285 L15.0909005,4.36085324 L15.0044518,4.49177782 M13.3211424,9.51499698 C13.563343,10.4270822 14.1352965,11.3628905 15.0892029,12.0567397 L15.0914098,12.5285196 M11.4220719,9.66857995 L13.2286673,9.66802626 L13.3211424,9.51555067" id="Stroke-19" stroke="#000000" stroke-width="1.904"/>
                <path d="M11.4220634,9.66858846 L13.2286588,9.66803478 L13.3211763,9.51555918 C13.563377,10.4276444 14.135288,11.3634527 15.0892369,12.0573019 L15.0914013,12.5290818 L13.2281071,12.5290818 L13.2281071,11.2894296 L10.3128718,11.2894296 L9.45912192,12.5124713 L7.12789283,12.5124713 L7.39432629,12.0865618 L7.39432629,5.55242875 L5.6895426,5.55242875 L5.6895426,3.80453878 L11.3103209,3.80453878 L11.3103209,5.55242875 L9.43102715,5.55242875 L9.43102715,9.17802591 L13.1515892,3.80453878 L15.090892,3.80453878 L15.090892,4.36086176 L15.0044857,4.49178634 C14.2124425,5.0976 13.6308129,5.93843052 13.3420564,6.89485288 L11.4220634,9.66858846 Z" id="Fill-21" fill="#FFFFFF"/>
                <path d="M20.2294249,9.41668004 L17.6224258,9.41280426 L17.6224258,10.1839986 L15.7520018,8.63999148 L17.6224258,7.09594179 M17.7953232,5.58340941 C16.3151279,5.58340941 15.1547546,6.75730115 15.1547546,8.24278829 C15.1556458,9.72844579 16.3556573,10.9324919 17.8360224,10.9330882 C18.8818946,10.9330882 19.7874204,10.292861 20.2294249,9.41612635 M17.7953232,3.76145377 L17.7953232,2.89362059 L20.1721744,4.58682378 L17.7953232,6.49928518 L17.7953232,5.58340941 M22.290401,7.85222928 C22.3002894,7.97484862 22.3052123,8.11791162 22.3052123,8.24334197 C22.2779663,10.7205594 20.254846,12.7066179 17.7864109,12.6792745 C15.3566804,12.6523145 13.3933994,10.6823127 13.3662807,8.24385306 C13.3662807,5.76680603 15.3270154,3.76256114 17.7953232,3.76256114 M17.6224258,7.09594179 L17.6224258,7.85222928 L22.290401,7.85222928" id="Stroke-23" stroke="#000000" stroke-width="1.904"/>
                <path d="M17.6224385,7.09593327 L17.6224385,7.85222076 L22.2903713,7.85222076 C22.3003021,7.97484011 22.3052251,8.1179457 22.3052251,8.24333345 C22.2779366,10.7205934 20.2548163,12.7066094 17.7863812,12.679266 C15.3566507,12.6523059 13.3934121,10.6823042 13.3662934,8.24388713 C13.3662934,5.76679752 15.3270281,3.76255262 17.7952934,3.76255262 L17.7952934,2.89471943 L20.1721871,4.58792263 L17.7952934,6.50042662 L17.7952934,5.58450825 C16.3150981,5.58450825 15.1547673,6.7584 15.1547673,8.24388713 C15.1556585,9.72954463 16.3556276,10.9335908 17.8360351,10.9342296 C18.8819074,10.9342296 19.7874331,10.2939599 20.2294377,9.4172252 L17.6224385,9.41339201 L17.6224385,10.1845863 L15.7520145,8.64053665 L17.6224385,7.09593327 Z" id="Fill-25" fill="#FFFFFF"/>
            </g>
            <path d="M51.5374653,28.7867585 L37.6790636,21.2295482 L37.6790636,0.00524294587 L65.3870822,0.00468926353 L65.3881431,21.233424 L51.5374653,28.7868011 L51.5374653,28.7867585 Z" id="Combined-Shape" fill="#000000" style="mix-blend-mode: color;"/>
        </g>
    </g>
</svg>