<?xml version="1.0" encoding="UTF-8"?>
<svg width="190px" height="80px" viewBox="0 0 190 80" version="1.1" xmlns="http://www.w3.org/2000/svg" xmlns:xlink="http://www.w3.org/1999/xlink">
    <!-- Generator: Sketch 53 (72520) - https://sketchapp.com -->
    <title>brands / Tag-Heuer-с</title>
    <desc>Created with Sketch.</desc>
    <g id="brands-/-Tag-Heuer-с" stroke="none" stroke-width="1" fill="none" fill-rule="evenodd">
        <g id="TAG-Heuer-Copy" transform="translate(44.000000, 14.000000)">
            <path d="M83.5858368,40.3761945 L90.9741665,40.3761945 C90.9741665,40.3761945 90.7324751,37.0394917 87.2486391,37.0394917 C85.2823873,37.0394917 84.0146428,38.5056426 83.5858368,40.3761945 L83.5858368,40.3761945 Z M83.4245678,41.4335148 C83.4157404,41.5678041 83.4118785,41.6954066 83.4118785,41.830718 C83.4118785,44.659183 85.2642233,46.7733125 88.0060519,46.7733125 C90.4798344,46.7733125 92.2743346,45.0430978 92.2743346,45.0430978 L92.2743346,46.3821998 C92.2743346,46.3821998 90.6091891,47.9207127 87.8629468,47.9207127 C83.6926564,47.9207127 82.0456749,44.3564465 82.0456749,41.8450712 C82.0456749,38.5647588 84.1699279,35.8584447 87.2568723,35.8584447 C90.7457161,35.8584447 92.4939576,38.5763436 92.4939576,41.4335148 L83.4245678,41.4335148 Z M58.6213445,40.3761945 L66.0107351,40.3761945 C66.0107351,40.3761945 65.7679827,37.0394917 62.2852077,37.0394917 C60.3189984,37.0394917 59.0501504,38.5056426 58.6213445,40.3761945 L58.6213445,40.3761945 Z M58.4600754,41.4335148 C58.4523515,41.5678041 58.4473861,41.6954066 58.4473861,41.830718 C58.4473861,44.659183 60.3007919,46.7733125 63.0426205,46.7733125 C65.5152995,46.7733125 67.3109456,45.0430978 67.3109456,45.0430978 L67.3109456,46.3821998 C67.3109456,46.3821998 65.6457577,47.9207127 62.898412,47.9207127 C58.7281215,47.9207127 57.0822435,44.3564465 57.0822435,41.8450712 C57.0822435,38.5647588 59.2053931,35.8584447 62.2923799,35.8584447 C65.7822847,35.8584447 67.5294652,38.5763436 67.5294652,41.4335148 L58.4600754,41.4335148 Z M21.8924017,42.6494438 L19.8149592,37.6388742 L17.8943721,42.6494438 L21.8924017,42.6494438 Z M16.955871,45.0850925 L15.927611,47.7173835 L12.3380165,47.7173835 L17.8035521,34.3138413 L21.6969691,34.3138413 L27.6100264,47.7173835 L24.021026,47.7173835 L22.9250754,45.0850925 L16.955871,45.0850925 Z M102.984085,37.2383915 C102.984085,37.2383915 101.806651,35.9053799 100.334222,35.9053799 C98.3613078,35.9053799 96.3422616,38.9884962 96.3422616,38.9884962 L96.3466753,36.1086665 L95.0552921,36.1086665 L95.0552921,47.6836941 L96.3422616,47.6836941 L96.3466753,40.3264483 C96.3466753,40.3264483 98.1741932,37.14171 99.9213313,37.14171 C101.120239,37.14171 102.294363,38.4271901 102.294363,38.4271901 L102.984128,37.2383915 L102.984085,37.2383915 Z M78.0498945,44.3348955 C78.0498945,44.3348955 77.1641879,46.9031297 74.2869357,46.9031297 C71.9485768,46.9031297 71.2015616,45.2563507 71.2015616,43.5968369 L71.2015616,36.0920987 L69.9157379,36.0920987 L69.9135311,43.3211883 C69.9135311,47.6986435 73.1810544,47.9422637 74.085986,47.9422637 C76.8328224,47.9422637 78.0542658,45.9319709 78.0542658,45.9319709 L78.0498945,47.6666151 L79.3401743,47.6666151 L79.3401743,36.0920987 L78.0542658,36.0920987 L78.0498945,44.3348955 Z M53.3479312,41.4241022 L53.3435175,47.6754314 L54.6349007,47.6754314 L54.6349007,34.3005956 L53.3435175,34.3005956 L53.3479312,40.3855645 L45.0354026,40.3855645 L45.0387128,34.3005956 L43.7473296,34.3005956 L43.7473296,47.6754314 L45.0387128,47.6754314 L45.0354026,41.4241022 L53.3479312,41.4241022 Z M40.2530111,47.4986364 C37.6416407,48.0869878 34.2821516,48.2604607 31.8551796,47.1406594 C29.7843576,46.2291705 28.5078282,44.0586932 28.2430499,41.9340437 C27.9672798,39.3243684 28.9449098,37.0389807 31.0272752,35.5031936 C33.4547989,33.7602868 37.3085777,33.8171883 39.9541117,35.0297952 L39.9541117,37.685852 C37.9520836,36.761671 34.9383045,36.2197012 33.0172081,37.685852 C31.6366601,38.7476444 31.2105703,40.4336497 31.5557285,42.1185476 C31.8320503,43.4460224 32.9709493,44.647002 34.236487,45.0856461 C35.1337371,45.3740295 36.2374116,45.4662815 37.2381286,45.3397437 L37.2381286,43.1764642 L35.9159345,43.1808937 L35.9159345,40.5728369 L40.2502526,40.5728369 L40.2502526,47.4986364 L40.2530111,47.4986364 Z M8.202993,47.6367588 L8.202993,36.7323684 L13.0002382,36.7323684 L13.0002382,34.1983773 L0,34.1983773 L0,36.7323684 L4.7972876,36.7323684 L4.7972876,47.6367588 L8.202993,47.6367588 Z" id="Fill-1" fill="#000000"/>
            <polygon id="Fill-3" fill="#000000" points="51.5374653 28.7867585 37.6790636 21.2295482 37.6790636 0.00524294587 65.3870822 0.00468926353 65.3881431 21.233424 51.5374653 28.7868011"/>
            <polygon id="Stroke-5" stroke="#000000" stroke-width="0.216" points="51.5374653 28.7867585 37.6790636 21.2295482 37.6790636 0.00524294587 65.3870822 0.00468926353 65.3881431 21.233424 51.5374653 28.7868011"/>
            <polygon id="Fill-7" fill="#FFFFFF" points="51.5424392 27.8255489 38.5355806 20.6649455 38.5372357 0.888562201 64.5283329 0.896824845 64.5283329 20.6704823 51.5423968 27.8255489"/>
            <polygon id="Stroke-9" stroke="#FFFFFF" stroke-width="0.216" points="51.5424392 27.8255489 38.5355806 20.6649455 38.5372357 0.888562201 64.5283329 0.896824845 64.5283329 20.6704823 51.5423968 27.8255489"/>
            <polygon id="Fill-11" fill="#CC2132" points="39.8060454 19.9280241 51.54134 26.3825973 63.2562638 19.9313462 63.2562638 14.2103595 39.8032869 14.2109558"/>
            <polygon id="Fill-13" fill="#52945D" points="63.2562468 13.5927695 63.2562468 2.16523443 39.8038641 2.16634179 39.8032699 13.5933232"/>
            <path d="M49.6757966,23.9933601 L49.6757966,15.277676 L50.5185547,15.277676 L50.5185547,23.4332039 L51.5418493,23.9508117 L52.5607727,23.4624639 L52.5607727,15.277676 L53.4040825,15.277676 L53.4040825,23.9939138 L51.54134,25.0059173 L49.6757966,23.9933601 Z M54.7950706,23.2657789 L54.7950706,15.277676 L57.1450154,15.277676 L57.1450154,16.0118587 L55.4958271,16.0118587 L55.4958271,18.1950708 L57.1471798,17.8531081 L57.1471798,18.5845224 L55.4958271,18.9518694 L55.4958271,22.0769803 L57.1461188,21.2654524 L57.1461188,21.9791915 L54.7950706,23.2657789 Z M41.9830928,17.5166822 L41.9830928,19.8446183 L41.2823788,19.4634293 L41.2818271,15.277676 L41.9830928,15.277676 L41.9830928,16.7841178 L43.8612832,17.1879652 L43.8612832,15.277676 L44.5598328,15.277676 L44.5598328,21.2267798 L43.8612832,20.8483592 L43.8612832,17.9271311 L41.9830928,17.5166822 Z M58.5172877,15.2771223 L61.4209795,15.2765686 C61.6373347,15.2616618 61.7573104,15.3726964 61.7854052,15.5307088 L61.7854052,17.2420983 C61.788673,17.5039475 61.7551035,17.6017363 61.514558,17.6636209 L60.7477661,17.8337718 L62.2290648,19.2225775 L61.5839461,19.5711418 L59.9022494,18.0088632 L59.2312852,18.1541835 L59.2312852,20.8423113 L58.5172877,21.2295482 L58.5162267,15.2853849 L58.5162267,15.2771223 L58.5172877,15.2771223 Z M48.2853178,22.4437736 L48.2853178,23.2674825 L45.942036,21.9775304 L45.942036,15.277676 L48.2859119,15.277676 L48.2859119,16.0124124 L46.6367237,16.0124124 L46.6372754,17.8000398 L48.2869729,18.1646609 L48.2864637,18.8911347 L46.6378271,18.5331578 L46.6383788,21.5941267 L48.2853178,22.4437736 Z" id="Fill-15" fill="#FFFFFF"/>
            <path d="M59.2301564,17.4133736 L59.2301564,16.0212458 L61.0053892,16.0212458 C61.0615363,16.015709 61.0912862,16.0626868 61.0912862,16.110772 L61.0890793,16.964252 C61.0901403,17.0233682 61.0577167,17.0360603 61.0103546,17.0393824 L59.2301564,17.4133736 Z" id="Fill-17" fill="#CC2132"/>
            <path d="M51.0211285,6.89897995 L49.1011355,9.67271553 M52.6835154,4.49646708 C51.8915146,5.10228075 51.309885,5.94311127 51.0211285,6.89953363 M52.7704734,12.5337626 L50.9071792,12.5337626 L50.9071792,11.2941104 L47.9919439,11.2941104 L47.1381516,12.5171947 L44.8069649,12.5171947 L45.0733984,12.0912852 L45.0733984,5.55715209 L43.3686147,5.55715209 L43.3686147,3.80926211 L48.9893506,3.80926211 L48.9893506,5.55715209 L47.1100993,5.55715209 L47.1100993,9.18274925 L50.8306613,3.80926211 L52.7699641,3.80926211 L52.7699641,4.3655425 L52.6835154,4.49646708 M51.000206,9.51968625 C51.2424066,10.4317714 51.8143601,11.3675798 52.7682665,12.0614289 L52.7704734,12.5332089 M49.1011355,9.67326921 L50.9077309,9.67271553 L51.000206,9.52023993" id="Stroke-19" stroke="#000000" stroke-width="1.904"/>
            <path d="M49.101127,9.67327773 L50.9077224,9.67272405 L51.0002399,9.52024845 C51.2424406,10.4323336 51.8143516,11.368142 52.7683005,12.0619911 L52.7704649,12.5337711 L50.9071707,12.5337711 L50.9071707,11.2941189 L47.9919354,11.2941189 L47.1381855,12.5171606 L44.8069564,12.5171606 L45.0733899,12.0912511 L45.0733899,5.55711801 L43.3686062,5.55711801 L43.3686062,3.80922804 L48.9893845,3.80922804 L48.9893845,5.55711801 L47.1100908,5.55711801 L47.1100908,9.18271517 L50.8306528,3.80922804 L52.7699556,3.80922804 L52.7699556,4.36555102 L52.6835494,4.4964756 C51.8915061,5.10228926 51.3098765,5.94311979 51.02112,6.89954215 L49.101127,9.67327773 Z" id="Fill-21" fill="#FFFFFF"/>
            <path d="M57.9084885,9.4213693 L55.3014894,9.41749352 L55.3014894,10.1886878 L53.4310654,8.64468075 L55.3014894,7.10063106 M55.4743868,5.58809867 C53.9941915,5.58809867 52.8338182,6.76199042 52.8338182,8.24747755 C52.8347094,9.73313505 54.0347209,10.9371812 55.515086,10.9377775 C56.5609583,10.9377775 57.466484,10.2975503 57.9084885,9.42081562 M55.4743868,3.76614303 L55.4743868,2.89830985 L57.851238,4.59151304 L55.4743868,6.50397445 L55.4743868,5.58809867 M59.9694646,7.85691854 C59.979353,7.97953789 59.9842759,8.12260089 59.9842759,8.24803123 C59.95703,10.7252486 57.9339096,12.7113072 55.4654745,12.6839638 C53.035744,12.6570037 51.072463,10.687002 51.0453443,8.24854232 C51.0453443,5.7714953 53.006079,3.7672504 55.4743868,3.7672504 M55.3014894,7.10063106 L55.3014894,7.85691854 L59.9694646,7.85691854" id="Stroke-23" stroke="#000000" stroke-width="1.904"/>
            <path d="M55.3015021,7.10062254 L55.3015021,7.85691003 L59.9694349,7.85691003 C59.9793657,7.97952937 59.9842887,8.12263496 59.9842887,8.24802272 C59.9570002,10.7252827 57.9338799,12.7112987 55.4654448,12.6839553 C53.0357143,12.6569952 51.0724757,10.6869934 51.0453571,8.2485764 C51.0453571,5.77148678 53.0060917,3.76724188 55.4743571,3.76724188 L55.4743571,2.8994087 L57.8512508,4.59261189 L55.4743571,6.50511588 L55.4743571,5.58919752 C53.9941618,5.58919752 52.8338309,6.76308926 52.8338309,8.2485764 C52.8347221,9.7342339 54.0346912,10.93828 55.5150987,10.9389189 C56.560971,10.9389189 57.4664967,10.2986492 57.9085013,9.42191446 L55.3015021,9.41808128 L55.3015021,10.1892756 L53.4310781,8.64522591 L55.3015021,7.10062254 Z" id="Fill-25" fill="#FFFFFF"/>
        </g>
    </g>
</svg>