<svg width="171" height="75" viewBox="0 0 171 75" fill="none" xmlns="http://www.w3.org/2000/svg">
<g clip-path="url(#clip0)">
<path d="M170.08 0H0V74.01H170.08V0Z" fill="white"/>
<path d="M24.1799 17.46H6.1499V35.49H24.1799V17.46Z" fill="#939393"/>
<path fill-rule="evenodd" clip-rule="evenodd" d="M123.71 35.93C123.71 32.52 126.34 31.84 129.19 31.84C132.04 31.84 134.67 32.52 134.67 35.93C134.67 39.34 131.94 40 129.19 40C126.44 40 123.71 39.29 123.71 35.91V35.93ZM136.54 35.93C136.54 31.35 133.2 30.06 129.18 30.06C125.16 30.06 121.83 31.32 121.83 35.93C121.83 40.54 125.06 41.79 129.18 41.79C133 41.79 136.54 40.51 136.54 35.93Z" fill="#201600"/>
<path d="M86.05 30.59H84V41.79H86.05V30.59Z" fill="#201600"/>
<path fill-rule="evenodd" clip-rule="evenodd" d="M94.1398 30.59H92.0898V41.79H103.11V39.96H94.1398V30.59Z" fill="#201600"/>
<path fill-rule="evenodd" clip-rule="evenodd" d="M118.68 30.59H103.21V32.33H109.98V41.79H112.03V32.33H118.68V30.59Z" fill="#201600"/>
<path fill-rule="evenodd" clip-rule="evenodd" d="M154.54 41.79V35.71C154.54 33.79 154.54 30.45 148 30.45C141.46 30.45 141.43 33.79 141.43 35.71V41.79H143.43V36.58C143.49 34.58 142.81 32.28 147.92 32.28C153.03 32.28 152.43 34.62 152.48 36.58V41.79H154.54Z" fill="#201600"/>
<path fill-rule="evenodd" clip-rule="evenodd" d="M49.7799 36H39.4799C39.4799 34.21 39.0099 32.27 44.6299 32.27C50.2499 32.27 49.8099 34.2 49.7799 36ZM44.6399 30.46C37.2299 30.46 37.4199 33.8 37.4199 35.72V41.8H39.4799V37.92H49.7799V41.79H51.8399V35.71C51.8399 33.79 52.0499 30.45 44.6399 30.45V30.46Z" fill="#201600"/>
<path fill-rule="evenodd" clip-rule="evenodd" d="M77.9999 41.79V35.62C77.9999 32.88 78.2599 30.21 72.7399 30.21C70.3899 30.21 68.6299 30.62 67.9599 31.7C67.2999 30.63 65.5499 30.21 63.1899 30.21C57.9399 30.21 57.9699 32.88 57.9399 35.62V41.79H59.9999V36.47C60.0899 34.12 59.3899 32.16 62.9999 32.16C66.9999 32.16 66.7899 32.9 66.7899 36.47V41.79H68.9999V36.47C68.9999 32.9 68.8499 32.16 72.7899 32.16C76.4499 32.16 75.7899 34.16 75.8499 36.47V41.79H77.9999Z" fill="#201600"/>
<path fill-rule="evenodd" clip-rule="evenodd" d="M29.32 34.8H19.06V30.48H17V41.73H19.07C19.07 41.73 19.07 38.85 19.07 36.85H29.32V41.73H31.37V30.48H29.32V34.8Z" fill="#201600"/>
<path fill-rule="evenodd" clip-rule="evenodd" d="M49.1401 47.54H49.6801C49.8118 47.5393 49.9429 47.5561 50.0701 47.59C50.1747 47.6182 50.273 47.6657 50.3601 47.73C50.4457 47.8004 50.5141 47.8893 50.5601 47.99C50.6043 48.1015 50.628 48.2201 50.6301 48.34C50.6272 48.4609 50.6 48.5799 50.5501 48.69C50.5022 48.79 50.4256 48.8736 50.3301 48.93C50.4969 48.9694 50.6451 49.0647 50.7501 49.2C50.8498 49.3401 50.9023 49.5082 50.9001 49.68C50.8975 49.8041 50.8703 49.9265 50.8201 50.04C50.7726 50.151 50.6967 50.2475 50.6001 50.32C50.5111 50.3895 50.4091 50.4404 50.3001 50.47C50.1639 50.5101 50.0219 50.527 49.8801 50.52H49.1401V47.52V47.54ZM49.4701 47.85V48.85H49.7201C49.873 48.8604 50.0247 48.818 50.1501 48.73C50.2034 48.6825 50.2453 48.6238 50.273 48.5581C50.3007 48.4923 50.3134 48.4213 50.3101 48.35C50.313 48.2827 50.3011 48.2155 50.2752 48.1533C50.2493 48.0911 50.21 48.0354 50.1601 47.99C50.0395 47.8909 49.886 47.8409 49.7301 47.85H49.4701ZM49.4701 49.14V50.21H49.8501C49.9531 50.2224 50.0572 50.2224 50.1601 50.21C50.2369 50.1933 50.3088 50.1591 50.3701 50.11C50.4325 50.0656 50.4838 50.0074 50.5201 49.94C50.5363 49.8608 50.5363 49.7792 50.5201 49.7C50.5183 49.6121 50.4942 49.5261 50.4501 49.45C50.4026 49.3727 50.3375 49.3076 50.2601 49.26C50.1964 49.2314 50.1291 49.2112 50.0601 49.2C49.9605 49.1886 49.8598 49.1886 49.7601 49.2L49.4701 49.14ZM51.4701 47.54H52.0101C52.1616 47.5384 52.3127 47.5552 52.4601 47.59C52.568 47.6272 52.6692 47.6812 52.7601 47.75C52.8593 47.8126 52.9417 47.8984 53.0001 48C53.0492 48.11 53.0731 48.2296 53.0701 48.35C53.078 48.465 53.0586 48.5802 53.0134 48.6862C52.9682 48.7923 52.8986 48.8861 52.8101 48.96C52.6183 49.1146 52.3762 49.193 52.1301 49.18H51.8401V50.48H51.5101V47.48L51.4701 47.54ZM51.8001 47.85V48.91H52.0701C52.2357 48.9239 52.4003 48.8738 52.5301 48.77C52.5867 48.7204 52.6314 48.6587 52.6609 48.5895C52.6903 48.5202 52.7037 48.4452 52.7001 48.37C52.7045 48.2977 52.6913 48.2253 52.6617 48.1592C52.6321 48.093 52.587 48.035 52.5301 47.99C52.3858 47.8925 52.2142 47.8435 52.0401 47.85H51.8001ZM55.0501 47.54V47.85H53.8801V48.74H55.0601V49.05H53.8801V50.21H55.0901V50.52H53.5501V47.52L55.0501 47.54ZM55.9001 50.54H55.6001L56.0901 47.4L57.2401 49.91L58.4001 47.39L58.8701 50.54H58.5301L58.2501 48.47L57.2501 50.67L56.2501 48.47L55.9601 50.54H55.9001ZM59.2701 50.54L60.1501 49.22C60.0548 49.2106 59.9609 49.1905 59.8701 49.16C59.7872 49.1288 59.7096 49.0849 59.6401 49.03C59.5517 48.9625 59.4827 48.8728 59.4401 48.77C59.3973 48.6584 59.377 48.5395 59.3801 48.42C59.365 48.3139 59.365 48.2061 59.3801 48.1C59.4136 47.9996 59.4681 47.9075 59.5401 47.83C59.6206 47.7379 59.7242 47.6689 59.8401 47.63C59.9807 47.5777 60.1303 47.5539 60.2801 47.56H60.9801V50.56H60.6501V49.26H60.4701L59.6201 50.56L59.2701 50.54ZM60.7001 47.87H60.3701C60.267 47.8612 60.1633 47.8612 60.0601 47.87C59.9888 47.8957 59.924 47.9367 59.8701 47.99C59.8223 48.0386 59.7848 48.0964 59.7601 48.16C59.7459 48.2293 59.7459 48.3008 59.7601 48.37C59.7489 48.4496 59.7489 48.5304 59.7601 48.61C59.7912 48.6751 59.8355 48.733 59.8901 48.78C59.9498 48.8236 60.0179 48.8543 60.0901 48.87C60.1764 48.8813 60.2638 48.8813 60.3501 48.87H60.7001V47.85V47.87ZM64.2101 50.59C64.0083 50.5933 63.8078 50.556 63.6206 50.4804C63.4333 50.4049 63.2632 50.2925 63.1201 50.15C62.974 50.0076 62.8593 49.8361 62.7835 49.6467C62.7078 49.4572 62.6725 49.2539 62.6801 49.05C62.6355 48.828 62.6407 48.5988 62.6954 48.379C62.7501 48.1592 62.853 47.9543 62.9965 47.7791C63.14 47.6039 63.3206 47.4627 63.5253 47.3657C63.73 47.2688 63.9536 47.2185 64.1801 47.2185C64.4066 47.2185 64.6303 47.2688 64.835 47.3657C65.0397 47.4627 65.2203 47.6039 65.3638 47.7791C65.5073 47.9543 65.6101 48.1592 65.6648 48.379C65.7195 48.5988 65.7248 48.828 65.6801 49.05C65.6855 49.252 65.6501 49.4531 65.5759 49.641C65.5016 49.829 65.3902 50 65.2482 50.1439C65.1063 50.2877 64.9367 50.4014 64.7497 50.478C64.5628 50.5547 64.3622 50.5928 64.1601 50.59H64.2101ZM64.2101 47.82C64.0527 47.8176 63.8965 47.8484 63.7517 47.9104C63.607 47.9725 63.477 48.0643 63.3701 48.18C63.1487 48.4156 63.0253 48.7267 63.0253 49.05C63.0253 49.3733 63.1487 49.6845 63.3701 49.92C63.4794 50.0341 63.6105 50.1248 63.7557 50.1868C63.901 50.2488 64.0572 50.2808 64.2151 50.2808C64.373 50.2808 64.5293 50.2488 64.6745 50.1868C64.8198 50.1248 64.9509 50.0341 65.0601 49.92C65.2816 49.6845 65.4049 49.3733 65.4049 49.05C65.4049 48.7267 65.2816 48.4156 65.0601 48.18C64.9548 48.0651 64.8265 47.9737 64.6835 47.9116C64.5405 47.8496 64.386 47.8184 64.2301 47.82H64.2101ZM66.3901 50.54V47.54H67.9001V47.85H66.7601V48.78H67.1601C67.4331 48.7617 67.7043 48.8357 67.9301 48.99C68.0178 49.069 68.0866 49.1665 68.1316 49.2755C68.1766 49.3846 68.1966 49.5023 68.1901 49.62C68.1943 49.7429 68.1724 49.8652 68.1259 49.979C68.0793 50.0927 68.0092 50.1953 67.9201 50.28C67.7261 50.4466 67.4756 50.5325 67.2201 50.52L66.3901 50.54ZM66.7201 49.11V50.23H67.1001C67.2095 50.2473 67.3208 50.2473 67.4301 50.23C67.5135 50.2065 67.5893 50.1617 67.6501 50.1C67.7055 50.0537 67.7442 49.9904 67.7601 49.92C67.7715 49.8404 67.7715 49.7596 67.7601 49.68C67.7643 49.5819 67.7399 49.4847 67.6901 49.4C67.6495 49.3293 67.5909 49.2706 67.5201 49.23C67.4606 49.1996 67.3964 49.1793 67.3301 49.17H67.0101L66.7201 49.11ZM68.7201 47.56H69.2701C69.4183 47.5577 69.5662 47.5745 69.7101 47.61C69.822 47.6448 69.927 47.6989 70.0201 47.77C70.1065 47.8515 70.1747 47.9503 70.2201 48.06C70.2692 48.17 70.2931 48.2896 70.2901 48.41C70.2957 48.5247 70.2752 48.6392 70.2302 48.7449C70.1851 48.8505 70.1167 48.9446 70.0301 49.02C69.8383 49.1746 69.5962 49.253 69.3501 49.24H69.0501V50.54H68.7201V47.54V47.56ZM69.0501 47.87V48.93H69.3301C69.4955 48.9419 69.6594 48.892 69.7901 48.79C69.8451 48.7392 69.8887 48.6772 69.918 48.6082C69.9473 48.5393 69.9617 48.4649 69.9601 48.39C69.9629 48.3179 69.949 48.2461 69.9195 48.1802C69.89 48.1143 69.8458 48.0561 69.7901 48.01C69.6447 47.9149 69.4739 47.8661 69.3001 47.87H69.0501ZM72.3101 47.56V47.87H71.1601V48.76H72.3401V49.07H71.1601V50.23H72.3801V50.54H70.8301V47.54L72.3101 47.56ZM74.3701 47.87H73.6501V50.54H73.3201V47.85H72.5901V47.54H74.3701V47.85V47.87ZM76.6101 50.54H77.0001L75.7001 47.4L74.3301 50.52H74.7001L75.0501 49.68H76.3201L76.6801 50.52L76.6101 50.54ZM75.1201 49.39L75.6201 48.19L76.1201 49.39H75.1201ZM79.0001 47.54V47.85H77.7901V48.74H79.0001V49.05H77.7901V50.21H79.0001V50.52H77.4601V47.52L79.0001 47.54ZM81.0601 47.85H80.3401V50.52H80.0001V47.85H79.2701V47.54H81.0501V47.85H81.0601ZM83.8401 50.52V50.1H83.7601C83.3983 50.124 83.0408 50.0096 82.7601 49.78C82.6465 49.6726 82.5574 49.542 82.4987 49.397C82.44 49.2521 82.4132 49.0962 82.4201 48.94C82.4145 48.784 82.4419 48.6285 82.5005 48.4837C82.5591 48.339 82.6476 48.2082 82.7601 48.1C83.0432 47.8747 83.3989 47.7609 83.7601 47.78H83.8401V47.42H84.1701V47.78H84.2501C84.6115 47.76 84.9676 47.8739 85.2501 48.1C85.3627 48.2082 85.4512 48.339 85.5098 48.4837C85.5684 48.6285 85.5957 48.784 85.5901 48.94C85.597 49.0962 85.5702 49.2521 85.5116 49.397C85.4529 49.542 85.3637 49.6726 85.2501 49.78C84.9699 50.0105 84.6121 50.125 84.2501 50.1H84.1701V50.52H83.8401ZM83.8401 49.79V48.09H83.7501C83.4743 48.0725 83.2012 48.1541 82.9801 48.32C82.8962 48.3992 82.8304 48.4956 82.7873 48.6027C82.7441 48.7097 82.7246 48.8248 82.7301 48.94C82.724 49.0554 82.7431 49.1706 82.7863 49.2778C82.8295 49.3849 82.8957 49.4812 82.9801 49.56C83.2012 49.726 83.4743 49.8076 83.7501 49.79H83.8401ZM84.1701 48.09V49.79H84.2601C84.5327 49.806 84.8021 49.7245 85.0201 49.56C85.1064 49.4822 85.1744 49.3862 85.2194 49.2791C85.2643 49.1719 85.2851 49.0561 85.2801 48.94C85.2799 48.8237 85.2559 48.7087 85.2094 48.602C85.163 48.4954 85.0952 48.3994 85.0101 48.32C84.7969 48.1538 84.5299 48.0719 84.2601 48.09H84.1701ZM87.5901 50.57C87.3896 50.5742 87.1904 50.5374 87.0046 50.4617C86.8189 50.386 86.6506 50.2732 86.5101 50.13C86.3625 49.9888 86.2468 49.8175 86.1709 49.6277C86.095 49.438 86.0606 49.2342 86.0701 49.03C86.0721 48.7274 86.1638 48.4322 86.3335 48.1817C86.5033 47.9312 86.7435 47.7367 87.0239 47.6227C87.3042 47.5088 87.612 47.4805 87.9084 47.5414C88.2048 47.6024 88.4765 47.7499 88.689 47.9653C88.9016 48.1806 89.0455 48.4542 89.1026 48.7514C89.1597 49.0485 89.1274 49.356 89.0098 49.6348C88.8922 49.9136 88.6945 50.1512 88.4418 50.3177C88.1891 50.4842 87.8927 50.572 87.5901 50.57V50.57ZM87.5901 47.8C87.4327 47.7976 87.2765 47.8284 87.1318 47.8904C86.987 47.9525 86.857 48.0443 86.7501 48.16C86.6386 48.2753 86.5512 48.4115 86.4928 48.5609C86.4344 48.7102 86.4063 48.8697 86.4101 49.03C86.404 49.1906 86.4311 49.3507 86.4895 49.5004C86.548 49.6501 86.6368 49.7861 86.7501 49.9C86.8585 50.0138 86.9888 50.1043 87.1332 50.1662C87.2776 50.2281 87.433 50.26 87.5901 50.26C87.7472 50.26 87.9027 50.2281 88.0471 50.1662C88.1915 50.1043 88.3218 50.0138 88.4301 49.9C88.6539 49.6656 88.7787 49.3541 88.7787 49.03C88.7787 48.706 88.6539 48.3944 88.4301 48.16C88.3233 48.0443 88.1933 47.9525 88.0485 47.8904C87.9038 47.8284 87.7476 47.7976 87.5901 47.8V47.8ZM89.7701 47.54H90.3101C90.4616 47.5384 90.6127 47.5552 90.7601 47.59C90.8685 47.6258 90.97 47.68 91.0601 47.75C91.1497 47.8309 91.2213 47.9297 91.2701 48.04C91.3109 48.1522 91.3312 48.2707 91.3301 48.39C91.3377 48.504 91.3191 48.6182 91.2757 48.724C91.2324 48.8297 91.1655 48.9241 91.0801 49C90.8857 49.157 90.6395 49.2355 90.3901 49.22H90.1001V50.52H89.7701V47.52V47.54ZM90.1001 47.85V48.91H90.3701C90.5357 48.9239 90.7003 48.8738 90.8301 48.77C90.8886 48.722 90.9346 48.6605 90.9641 48.5909C90.9937 48.5212 91.0061 48.4455 91.0001 48.37C91.0045 48.2977 90.9913 48.2253 90.9617 48.1592C90.9321 48.093 90.887 48.035 90.8301 47.99C90.6889 47.8939 90.5209 47.8449 90.3501 47.85H90.1001ZM92.1001 50.52H91.7601L92.2501 47.38L93.4001 49.89L94.5601 47.37L95.0001 50.52H94.6601L94.3801 48.45L93.3801 50.65L92.3801 48.45L92.0901 50.52H92.1001ZM95.3701 47.52H95.7701L96.7001 49.28L97.4801 47.52H97.8301L96.4901 50.52H96.1301L96.5101 49.69L95.3701 47.54V47.52ZM101.53 47.77V48.18L101.3 48C101.242 47.953 101.178 47.9128 101.11 47.88C101.029 47.844 100.946 47.814 100.86 47.79C100.777 47.7803 100.693 47.7803 100.61 47.79C100.452 47.7895 100.296 47.8222 100.151 47.8859C100.006 47.9496 99.8765 48.043 99.7701 48.16C99.6586 48.2753 99.5712 48.4115 99.5128 48.5609C99.4544 48.7102 99.4263 48.8697 99.4301 49.03C99.4247 49.3534 99.5468 49.666 99.7701 49.9C99.8779 50.0139 100.008 50.1039 100.153 50.1642C100.298 50.2245 100.453 50.2537 100.61 50.25C100.703 50.2653 100.797 50.2653 100.89 50.25C100.983 50.2255 101.074 50.1921 101.16 50.15L101.33 50.04C101.388 49.9988 101.442 49.9519 101.49 49.9V50.31C101.361 50.4086 101.216 50.4831 101.06 50.53C100.915 50.5776 100.763 50.6012 100.61 50.6C100.41 50.6042 100.21 50.5674 100.025 50.4917C99.8389 50.416 99.6706 50.3032 99.5301 50.16C99.2472 49.8657 99.0892 49.4733 99.0892 49.065C99.0892 48.6568 99.2472 48.2643 99.5301 47.97C99.6721 47.8226 99.8432 47.7064 100.033 47.6289C100.222 47.5514 100.426 47.5143 100.63 47.52C100.784 47.5205 100.936 47.5476 101.08 47.6C101.229 47.647 101.368 47.7217 101.49 47.82L101.53 47.77ZM104.03 50.5V47.85H103.53L103.7 47.54H104.36V50.54L104.03 50.5ZM107.05 49C107.188 49.06 107.303 49.1613 107.38 49.29C107.454 49.4249 107.492 49.5764 107.49 49.73C107.494 49.9601 107.408 50.1827 107.25 50.35C107.164 50.4365 107.061 50.5036 106.947 50.5468C106.833 50.5899 106.712 50.6081 106.59 50.6C106.469 50.6074 106.347 50.5889 106.233 50.5458C106.12 50.5027 106.016 50.436 105.93 50.35C105.775 50.1817 105.692 49.9589 105.7 49.73C105.694 49.5758 105.732 49.423 105.81 49.29C105.882 49.1569 105.999 49.054 106.14 49C106.027 48.9368 105.933 48.8433 105.87 48.73C105.81 48.6125 105.779 48.4821 105.78 48.35C105.778 48.1359 105.856 47.9287 106 47.77C106.077 47.6908 106.168 47.6278 106.27 47.5847C106.371 47.5417 106.48 47.5195 106.59 47.5195C106.7 47.5195 106.809 47.5417 106.911 47.5847C107.012 47.6278 107.104 47.6908 107.18 47.77C107.253 47.8475 107.31 47.9386 107.348 48.0381C107.386 48.1376 107.403 48.2436 107.4 48.35C107.401 48.4821 107.37 48.6125 107.31 48.73C107.248 48.8406 107.158 48.9335 107.05 49V49ZM106.59 48.86C106.657 48.8635 106.723 48.8529 106.785 48.8287C106.847 48.8046 106.903 48.7675 106.95 48.72C107.043 48.6194 107.093 48.4868 107.09 48.35C107.095 48.21 107.044 48.0737 106.95 47.97C106.904 47.9217 106.848 47.8835 106.786 47.8577C106.724 47.8319 106.657 47.819 106.59 47.82C106.525 47.8192 106.46 47.8322 106.399 47.858C106.339 47.8838 106.285 47.922 106.24 47.97C106.192 48.0201 106.154 48.0798 106.13 48.1452C106.106 48.2107 106.096 48.2804 106.1 48.35C106.094 48.4167 106.103 48.4839 106.125 48.5471C106.148 48.6102 106.183 48.6679 106.229 48.7162C106.276 48.7644 106.332 48.8023 106.394 48.8271C106.456 48.8519 106.523 48.8631 106.59 48.86V48.86ZM106.59 50.3C106.666 50.3043 106.742 50.2922 106.813 50.2646C106.883 50.237 106.947 50.1945 107 50.14C107.054 50.0845 107.096 50.0187 107.123 49.9465C107.151 49.8743 107.163 49.7972 107.16 49.72C107.163 49.5676 107.105 49.4204 107 49.31C106.888 49.2081 106.742 49.1517 106.59 49.1517C106.439 49.1517 106.292 49.2081 106.18 49.31C106.079 49.4219 106.025 49.569 106.03 49.72C106.024 49.8741 106.078 50.0245 106.18 50.14C106.29 50.2452 106.438 50.3026 106.59 50.3V50.3ZM108.91 50.62L108.66 50.44L109.35 49.49H109.21H109.08C108.952 49.4953 108.824 49.473 108.705 49.4247C108.586 49.3764 108.479 49.3032 108.39 49.21C108.21 49.0181 108.113 48.763 108.12 48.5C108.12 48.2348 108.225 47.9805 108.413 47.7929C108.601 47.6054 108.855 47.5 109.12 47.5C109.257 47.4952 109.393 47.5185 109.52 47.5683C109.647 47.6182 109.763 47.6937 109.86 47.79C109.955 47.8858 110.03 47.9999 110.08 48.1254C110.13 48.2508 110.154 48.3851 110.15 48.52C110.149 48.6359 110.129 48.7507 110.09 48.86C110.048 48.982 109.987 49.0967 109.91 49.2L108.91 50.6V50.62ZM109.15 47.82C109.055 47.8162 108.96 47.8329 108.872 47.8692C108.784 47.9054 108.705 47.9603 108.64 48.03C108.576 48.0977 108.525 48.1778 108.493 48.2655C108.46 48.3532 108.446 48.4466 108.45 48.54C108.447 48.6304 108.462 48.7205 108.494 48.8047C108.527 48.889 108.577 48.9657 108.64 49.03C108.708 49.0941 108.788 49.144 108.876 49.1766C108.964 49.2092 109.057 49.224 109.15 49.22C109.242 49.2232 109.333 49.2081 109.419 49.1754C109.505 49.1428 109.584 49.0934 109.65 49.03C109.713 48.9654 109.763 48.8886 109.795 48.8044C109.828 48.7202 109.843 48.6303 109.84 48.54C109.846 48.3517 109.778 48.1686 109.65 48.03C109.515 47.9009 109.337 47.8262 109.15 47.82ZM112.56 50.55H110.64L111.72 49.3L111.92 49.06C111.99 48.97 112.04 48.91 112.07 48.86C112.123 48.7889 112.166 48.7116 112.2 48.63C112.21 48.557 112.21 48.483 112.2 48.41C112.202 48.3321 112.188 48.2546 112.159 48.1824C112.129 48.1102 112.086 48.0447 112.03 47.99C111.974 47.9337 111.907 47.8896 111.833 47.8603C111.759 47.8311 111.68 47.8174 111.6 47.82C111.5 47.8231 111.401 47.847 111.31 47.89C111.229 47.9409 111.161 48.0093 111.11 48.09C111.074 48.1415 111.046 48.199 111.03 48.26C111.025 48.3199 111.025 48.3801 111.03 48.44H110.7C110.699 48.3239 110.719 48.2086 110.76 48.1C110.796 47.9976 110.85 47.9027 110.92 47.82C111.002 47.7252 111.105 47.65 111.22 47.6C111.35 47.5448 111.489 47.5175 111.63 47.52C111.75 47.5172 111.87 47.5387 111.982 47.5834C112.093 47.6281 112.195 47.695 112.28 47.78C112.367 47.8598 112.437 47.9572 112.483 48.0658C112.53 48.1745 112.553 48.2918 112.55 48.41C112.551 48.5163 112.53 48.6216 112.49 48.72C112.45 48.8396 112.389 48.9513 112.31 49.05L112.15 49.26L111.9 49.55L111.28 50.25H112.54V50.55H112.56ZM114.38 50.55V47.55H115.74V47.86H114.74V50.53L114.38 50.55ZM117.38 50.55C117.178 50.5533 116.978 50.516 116.791 50.4404C116.603 50.3649 116.433 50.2525 116.29 50.11C116.144 49.9676 116.029 49.7961 115.954 49.6067C115.878 49.4172 115.843 49.2139 115.85 49.01C115.806 48.788 115.811 48.5588 115.865 48.339C115.92 48.1192 116.023 47.9143 116.166 47.7391C116.31 47.5639 116.491 47.4227 116.695 47.3258C116.9 47.2288 117.124 47.1785 117.35 47.1785C117.577 47.1785 117.8 47.2288 118.005 47.3258C118.21 47.4227 118.39 47.5639 118.534 47.7391C118.677 47.9143 118.78 48.1192 118.835 48.339C118.89 48.5588 118.895 48.788 118.85 49.01C118.856 49.212 118.82 49.4131 118.746 49.601C118.672 49.789 118.56 49.96 118.418 50.1039C118.276 50.2477 118.107 50.3614 117.92 50.438C117.733 50.5147 117.532 50.5528 117.33 50.55H117.38ZM117.38 47.78C117.223 47.7776 117.066 47.8084 116.922 47.8704C116.777 47.9325 116.647 48.0243 116.54 48.14C116.319 48.3756 116.195 48.6867 116.195 49.01C116.195 49.3333 116.319 49.6445 116.54 49.88C116.649 49.9941 116.781 50.0848 116.926 50.1468C117.071 50.2088 117.227 50.2408 117.385 50.2408C117.543 50.2408 117.699 50.2088 117.845 50.1468C117.99 50.0848 118.121 49.9941 118.23 49.88C118.452 49.6445 118.575 49.3333 118.575 49.01C118.575 48.6867 118.452 48.3756 118.23 48.14C118.125 48.0251 117.996 47.9337 117.853 47.8716C117.71 47.8096 117.556 47.7784 117.4 47.78H117.38ZM119.81 47.52H121.63V50.19H122V51.13H121.69V50.5H119.58V51.13H119.26V50.19C119.359 50.1887 119.454 50.1534 119.53 50.09C119.62 50.0059 119.692 49.9036 119.74 49.79C119.774 49.6818 119.801 49.5716 119.82 49.46C119.82 49.33 119.82 49.18 119.82 49V47.54L119.81 47.52ZM120.15 47.83V49C120.15 49.21 120.15 49.37 120.15 49.5C120.132 49.6151 120.105 49.7287 120.07 49.84C120.043 49.9064 120.009 49.97 119.97 50.03C119.932 50.0877 119.889 50.1413 119.84 50.19H121.33V47.85L120.15 47.83ZM124.41 50.5L124.06 49.66H122.79L122.43 50.5H122.07L123.44 47.38L124.78 50.5H124.41ZM122.92 49.35H123.92L123.42 48.15L122.92 49.35Z" fill="#201600" stroke="#201600" stroke-width="0.22" stroke-miterlimit="22.93"/>
</g>
<defs>
<clipPath id="clip0">
<rect width="170.08" height="74.01" fill="white"/>
</clipPath>
</defs>
</svg>