<?xml version="1.0" encoding="UTF-8"?>
<svg width="48px" height="48px" viewBox="0 0 48 48" version="1.1" xmlns="http://www.w3.org/2000/svg" xmlns:xlink="http://www.w3.org/1999/xlink">
    <!-- Generator: Sketch 53 (72520) - https://sketchapp.com -->
    <title>benefits_03</title>
    <desc>Created with Sketch.</desc>
    <g id="benefits_03" stroke="none" stroke-width="1" fill="none" fill-rule="evenodd">
        <path d="M40.9243403,35.0445333 C40.5165295,32.49609 38.50391,30.4834705 35.9554667,30.0756597 L39.2493257,27.3806842 C39.6469474,27.0553573 40.2263932,27.0842576 40.5896703,27.4475347 L43.5524653,30.4103297 C43.9157424,30.7736068 43.9446427,31.3530526 43.6193158,31.7506743 L40.9243403,35.0445333 Z M34.0445333,41.9243403 L30.7506743,44.6193158 C30.3530526,44.9446427 29.7736068,44.9157424 29.4103297,44.5524653 L26.4475347,41.5896703 C26.0842576,41.2263932 26.0553573,40.6469474 26.3806842,40.2493257 L29.0756597,36.9554667 C29.4834705,39.50391 31.49609,41.5165295 34.0445333,41.9243403 Z" id="Combined-Shape" stroke="#323232" stroke-width="2"></path>
        <circle id="Oval" stroke="#323232" stroke-width="2" cx="35" cy="36" r="6"></circle>
        <g id="Group" transform="translate(21.284834, 20.277260) rotate(5.000000) translate(-21.284834, -20.277260) translate(4.784834, 3.777260)" stroke="#323232" stroke-linecap="round" stroke-linejoin="round" stroke-width="2">
            <path d="M0.998590742,19.8719505 C1.42595493,14.644169 1.92876236,11.7813104 2.50701306,11.2833748 C3.08526375,10.7854392 5.26569147,10.9398261 9.04829623,11.7465353 L20.2035853,0.609534671 C21.0181054,-0.203650109 22.3374544,-0.203108916 23.1513071,0.610743816 L23.1513071,0.610743816 C23.9735186,1.43295531 23.9977091,2.75836931 23.206048,3.610036 L15.8542807,11.5190454 L16.5784774,12.3904384 L26.7228966,4.6304289 C27.6205993,3.94372801 28.8969938,4.07071421 29.6418018,4.92082554 L29.6418018,4.92082554 C30.3556441,5.73559305 30.273828,6.97477611 29.4590605,7.68861837 C29.4473795,7.69885244 29.4355774,7.70894741 29.4236566,7.71890115 L19.0506768,16.3802548 L19.8473834,17.1582935 L29.2447927,12.1065535 C30.1439678,11.6231863 31.2629855,11.8969651 31.8374309,12.740868 L31.8374309,12.740868 C32.3899624,13.5525779 32.1798568,14.658514 31.3681469,15.2110455 C31.3631711,15.2144326 31.3581781,15.2177943 31.3531682,15.2211306 L22.9878314,20.79194 L23.8497214,23.120516 C24.2807631,24.2850641 23.9497961,25.5948075 23.0172719,26.4147878 C19.6524377,29.3735291 17.4662655,31.1556471 16.4587553,31.7611417 C15.3044831,32.4548376 13.7827183,32.713785 11.8934608,32.5379841" id="Path-6" transform="translate(16.572192, 16.295651) scale(-1, 1) translate(-16.572192, -16.295651) "></path>
            <path d="M9.26254938,20.137487 L12.8859926,22.4552562" id="Path-7"></path>
            <path d="M23.0925494,10.747487 L26.8648689,14.7718577" id="Path-7-Copy"></path>
        </g>
    </g>
</svg>